<?xml version="1.0" encoding="utf-8"?>
<!-- Generator: Adobe Illustrator 24.0.2, SVG Export Plug-In . SVG Version: 6.00 Build 0)  -->
<svg version="1.1" id="Capa_1" xmlns="http://www.w3.org/2000/svg" xmlns:xlink="http://www.w3.org/1999/xlink" x="0px" y="0px"
	 viewBox="0 0 1260 56.9" style="enable-background:new 0 0 1260 56.9;" xml:space="preserve">
<style type="text/css">
	.st0{clip-path:url(#SVGID_2_);}
	.st1{fill:#099268;}
	.st2{fill:#FFFFFF;fill-opacity:0.5;}
	.st3{fill:#FFFFFF;}
	.st4{fill:#49B997;}
	.st5{clip-path:url(#SVGID_4_);}
	.st6{clip-path:url(#SVGID_6_);}
	.st7{clip-path:url(#SVGID_8_);}
	.st8{clip-path:url(#SVGID_10_);}
	.st9{clip-path:url(#SVGID_12_);}
</style>
<g>
	<defs>
		<rect id="SVGID_1_" y="-31.4" width="309" height="88.3"/>
	</defs>
	<clipPath id="SVGID_2_">
		<use xlink:href="#SVGID_1_"  style="overflow:visible;"/>
	</clipPath>
	<g class="st0">
		<path class="st1" d="M119.2,57l-16.7-23.6c-0.6-0.8-1.8-1-2.6-0.4c-0.2,0.1-0.3,0.3-0.4,0.4L82.7,57c-0.2,0.3-0.3,0.6-0.3,0.9
			c0,0.3,0.1,0.5,0.2,0.8c0.4,0.5,1,0.8,1.6,0.8h33.4c0.6,0,1.3-0.3,1.6-0.8c0.1-0.2,0.2-0.5,0.2-0.8
			C119.5,57.6,119.4,57.2,119.2,57z M101,37.5l4.9,6.9H101l-3.7,3.4l-2.3-2L101,37.5z M303.7,57L287,33.4c-0.6-0.8-1.8-1-2.6-0.4
			c-0.2,0.1-0.3,0.3-0.4,0.4L267.3,57c-0.2,0.3-0.3,0.6-0.3,0.9c0,0.3,0.1,0.5,0.2,0.8c0.4,0.5,1,0.8,1.6,0.8h33.4
			c0.6,0,1.3-0.3,1.6-0.8c0.1-0.2,0.2-0.5,0.2-0.8C304,57.6,303.9,57.2,303.7,57z M285.5,37.5l4.9,6.9h-4.9l-3.7,3.4l-2.3-2
			L285.5,37.5z M50.5,57.4L39.2,41.8c-0.7-0.8-1.8-0.9-2.7-0.3c-0.1,0.1-0.2,0.2-0.3,0.3l-1.9,2.7l4,5.5c0.1,0.2,0.1,0.4-0.1,0.5
			c0,0,0,0,0,0l-0.8,0.5c-0.2,0.1-0.5,0-0.6-0.2L33.3,46l-4.1-5.8c-0.7-0.9-2-1-2.9-0.3C26.1,40,26,40.1,26,40.2l-12,17.1
			c-0.7,1,0.1,2.3,1.5,2.3h33.6C50.3,59.6,51.2,58.4,50.5,57.4L50.5,57.4z M211.7,56.3l-2.9-3.1h1.2c0.5,0.1,0.9-0.3,1-0.8
			c0-0.2,0-0.5-0.2-0.7l-3.1-3.3h1.4c0.7,0,1.1-0.7,0.7-1.1l-4.4-4.3c-0.4-0.3-0.9-0.3-1.3,0l-4.4,4.3c-0.4,0.4-0.1,1.1,0.7,1.1h1.5
			l-3.1,3.3c-0.6,0.6-0.1,1.4,0.8,1.4h1.2l-2.9,3.1c-0.4,0.4-0.3,1,0.1,1.4c0.2,0.2,0.5,0.3,0.8,0.3h12.4c0.5,0.1,1-0.3,1.1-0.9
			C212,56.8,212,56.5,211.7,56.3L211.7,56.3z"/>
		<path class="st1" d="M217.7,56.3l-2.9-3.1h1.2c0.5,0.1,0.9-0.3,1-0.8c0-0.2,0-0.5-0.2-0.7l-3.1-3.3h1.4c0.7,0,1.1-0.7,0.7-1.1
			l-4.4-4.3c-0.4-0.3-0.9-0.3-1.3,0l-4.4,4.3c-0.4,0.4-0.1,1.1,0.7,1.1h1.4l-3.1,3.3c-0.6,0.6-0.1,1.4,0.8,1.4h1.2l-2.9,3.1
			c-0.4,0.4-0.3,1,0.1,1.4c0.2,0.2,0.5,0.3,0.8,0.3h12.4c0.5,0,1-0.4,1.1-0.9C218,56.8,217.9,56.5,217.7,56.3L217.7,56.3z
			 M235.7,56.3l-2.9-3.1h1.2c0.5,0.1,0.9-0.3,1-0.8c0-0.2,0-0.5-0.2-0.7l-3.1-3.3h1.4c0.7,0,1.1-0.7,0.7-1.1l-4.4-4.3
			c-0.4-0.3-0.9-0.3-1.3,0l-4.4,4.3c-0.4,0.4-0.1,1.1,0.7,1.1h1.5l-3.1,3.3c-0.6,0.6-0.1,1.4,0.8,1.4h1.2l-2.9,3.1
			c-0.4,0.4-0.3,1,0.1,1.4c0.2,0.2,0.5,0.3,0.8,0.3h12.4c0.5,0,1-0.4,1.1-0.9C236,56.8,235.9,56.5,235.7,56.3L235.7,56.3z
			 M262.5,56.3l-2.9-3.1h1.1c0.5,0.1,0.9-0.3,1-0.8c0-0.2,0-0.5-0.2-0.7l-3.1-3.3h1.4c0.7,0,1.1-0.7,0.7-1.1l-4.4-4.3
			c-0.4-0.3-0.9-0.3-1.3,0l-4.4,4.3c-0.4,0.4-0.1,1.1,0.7,1.1h1.5l-3.1,3.3c-0.6,0.6-0.1,1.4,0.8,1.4h1.2l-2.9,3.1
			c-0.4,0.4-0.3,1,0.1,1.4c0.2,0.2,0.5,0.3,0.8,0.3h12.4c0.5,0,1-0.4,1.1-0.9C262.8,56.8,262.7,56.5,262.5,56.3L262.5,56.3z
			 M88.8,56.3l-2.9-3.1H87c0.9,0,1.3-0.9,0.8-1.4l-3.1-3.3h1.4c0.7,0,1.1-0.7,0.7-1.1l-4.4-4.3c-0.4-0.3-0.9-0.3-1.3,0l-4.5,4.3
			c-0.4,0.4-0.1,1.1,0.7,1.1h1.5l-3.1,3.3c-0.6,0.6-0.1,1.4,0.8,1.4h1.2l-2.9,3.1c-0.4,0.4-0.3,1,0.1,1.4c0.2,0.2,0.5,0.3,0.8,0.3
			h12.4c0.5,0,1-0.4,1.1-0.9C89,56.8,88.9,56.5,88.8,56.3L88.8,56.3z M70.8,56.3l-2.9-3.1h1.2c0.5,0.1,0.9-0.3,1-0.8
			c0-0.2,0-0.5-0.2-0.7l-3.1-3.3h1.4c0.7,0,1.1-0.7,0.7-1.1l-4.4-4.3c-0.4-0.3-0.9-0.3-1.3,0l-4.4,4.3c-0.4,0.4-0.1,1.1,0.7,1.1h1.5
			l-3.1,3.3c-0.6,0.6-0.1,1.4,0.8,1.4h1.2l-2.9,3.1c-0.4,0.4-0.3,1,0.1,1.4c0.2,0.2,0.5,0.3,0.8,0.3H70c0.5,0,1-0.4,1-1
			C71.1,56.7,71,56.5,70.8,56.3L70.8,56.3z"/>
		<path class="st1" d="M65.2,56.3l-2.9-3.1h1.2c0.9,0,1.3-0.9,0.8-1.4l-3.1-3.3h1.4c0.7,0,1.1-0.7,0.7-1.1l-4.4-4.3
			c-0.4-0.3-0.9-0.3-1.3,0l-4.4,4.3c-0.4,0.4-0.1,1.1,0.7,1.1h1.5l-3.1,3.3c-0.6,0.6-0.1,1.4,0.8,1.4h1.2l-2.9,3.1
			c-0.4,0.4-0.3,1,0.1,1.4c0.2,0.2,0.5,0.3,0.8,0.3h12.3c0.5,0.1,1-0.3,1.1-0.9C65.5,56.8,65.4,56.5,65.2,56.3z M21.1,56.3l-2.9-3.1
			h1.2c0.5,0.1,0.9-0.3,1-0.8c0-0.2,0-0.5-0.2-0.7L17,48.5h1.4c0.7,0,1.1-0.7,0.7-1.1l-4.4-4.3c-0.4-0.3-0.9-0.3-1.3,0L9,47.4
			c-0.4,0.4-0.1,1.1,0.7,1.1h1.5l-3.1,3.3c-0.6,0.6-0.1,1.4,0.8,1.4H10L7,56.3c-0.4,0.4-0.3,1,0.1,1.4C7.3,57.9,7.6,58,7.8,58h12.4
			c0.5,0,1-0.4,1.1-0.9C21.4,56.8,21.3,56.5,21.1,56.3L21.1,56.3z"/>
		<path class="st2" d="M173.1,48.3h6.5v5.2h-6.5V48.3z"/>
		<path class="st1" d="M184.5,50.4l-1.7-1.3v-3.6c0-0.2-0.2-0.4-0.5-0.4h-1.9c-0.2,0-0.4,0.2-0.5,0.4v1.4l-3-2.4
			c-0.4-0.4-1.1-0.4-1.5,0l-7.4,5.9c-0.1,0.1-0.2,0.2-0.2,0.3c0,0.1,0.1,0.2,0.1,0.3l0.6,0.6c0.1,0.1,0.2,0.1,0.3,0.1
			c0.1,0,0.2,0,0.3-0.1l0.5-0.4v5.5c0,0.5,0.4,0.9,0.9,0.8c0,0,0,0,0,0h11.1c0.5,0,0.9-0.4,0.9-0.8v-5.5l0.4,0.4
			c0.1,0.1,0.2,0.1,0.3,0.1c0.1,0,0.2,0,0.3-0.1l0.6-0.6c0.1-0.1,0.1-0.2,0.1-0.3C184.7,50.6,184.6,50.5,184.5,50.4z M178.2,52
			c0,0.3-0.3,0.6-0.6,0.6h-2.5c-0.3,0-0.6-0.2-0.6-0.5c0,0,0,0,0,0v-2.2c0-0.3,0.3-0.6,0.6-0.6h2.5c0.3,0,0.6,0.3,0.6,0.6V52z"/>
		<path class="st3" d="M148.2,56.4c0,0.2,0.1,0.5,0.3,0.5c0,0,0,0,0,0h0.1c0.2,0,0.4-0.1,0.5-0.3l0.4-1.3l-0.8-0.7L148.2,56.4z
			 M148.4,53.8l0.6-2.1c0-0.1-0.1-0.2-0.2-0.2c-0.6-0.2-1.2,0.2-1.4,0.8l-0.4,1.3c0,0.1,0.1,0.2,0.2,0.3c0,0,0,0,0,0l0.9,0.2
			C148.3,54,148.4,53.9,148.4,53.8z M152.4,52.3h-0.2c-0.1,0-0.2,0.1-0.2,0.2v0.2h-0.5l-0.7-0.6c-0.2-0.2-0.4-0.2-0.6-0.2
			c-0.4,0-0.7,0.2-0.8,0.6l-0.4,1.4V54c0,0.1,0.1,0.2,0.1,0.3l1.3,1.1v1.1c0,0.2,0.2,0.4,0.5,0.4c0,0,0,0,0,0c0.2,0,0.4-0.2,0.5-0.4
			v-1.1c0-0.2-0.1-0.4-0.3-0.6l-0.7-0.6l0,0l0.3-1l0.3,0.3c0.1,0.1,0.2,0.1,0.3,0.1h0.7v3.2c0,0.1,0.1,0.2,0.2,0.2h0.2
			c0.1,0,0.2-0.1,0.2-0.2v-4.2C152.6,52.4,152.5,52.3,152.4,52.3C152.4,52.3,152.4,52.3,152.4,52.3L152.4,52.3z M150.5,51.5
			c0.4,0,0.7-0.3,0.7-0.6c0-0.4-0.3-0.6-0.7-0.6c-0.4,0-0.7,0.3-0.7,0.6C149.8,51.2,150.2,51.5,150.5,51.5
			C150.5,51.4,150.5,51.4,150.5,51.5L150.5,51.5z M63.8,54.9c-0.6,0.3-1.4,0.1-1.7-0.5c0,0,0-0.1-0.1-0.1c-0.9,0.2-1.5,0.9-1.5,1.8
			v0.3c-0.2,0-0.3-0.1-0.3-0.3l0,0v-2c-0.1-0.4-0.5-0.6-0.9-0.5c-0.3,0.1-0.5,0.3-0.5,0.5l0,0v0.4c0,0.1,0.1,0.3,0.3,0.3
			c0,0,0,0,0,0l0,0c0.2,0,0.3-0.1,0.3-0.3c0,0,0,0,0,0v-0.4c0-0.1,0.1-0.1,0.2-0.1c0.1,0,0.1,0.1,0.1,0.1v2c0,0.5,0.4,0.8,0.9,0.8
			h2.2c0.1,0,0.1-0.1,0.1-0.1v-0.1c0-0.2-0.1-0.3-0.3-0.3H62l1.4-0.9l0.3,0.9v0.1v0.3c0,0.1,0.1,0.1,0.1,0.1c0,0,0,0,0,0h0.3
			c0.1,0,0.1-0.1,0.2-0.1v-0.3c0-0.1,0-0.2,0-0.3L63.8,54.9L63.8,54.9z M64.2,53.2H64c-0.1-0.3-0.5-0.5-0.8-0.5
			c-0.4,0-0.7,0.2-0.8,0.5h-0.2c-0.2,0-0.4,0.2-0.4,0.4c0,0.2,0.2,0.4,0.4,0.4c0,0,0,0,0,0h0.1c0,0.5,0.5,0.9,1,0.8
			c0.4,0,0.8-0.4,0.8-0.8h0.1c0.2,0,0.4-0.2,0.4-0.4C64.6,53.3,64.5,53.2,64.2,53.2C64.2,53.2,64.2,53.2,64.2,53.2z M62.8,53.6
			c-0.1,0-0.1,0-0.2-0.1c0-0.1,0-0.1,0.1-0.2c0,0,0,0,0.1,0c0.1,0,0.1,0,0.2,0.1C63,53.5,63,53.6,62.8,53.6
			C62.9,53.6,62.9,53.6,62.8,53.6z M63.6,53.6c-0.1,0-0.1-0.1-0.1-0.1l0,0c0-0.1,0.1-0.1,0.1-0.1c0,0,0,0,0,0c0.1,0,0.1,0,0.2,0.1
			C63.8,53.5,63.7,53.6,63.6,53.6C63.6,53.6,63.6,53.6,63.6,53.6L63.6,53.6z M120.6,55.7h-0.3c-0.4,0-0.8,0.1-1.2,0.4v-0.6
			c0.1,0,0.2,0,0.2,0c0.3,0,0.6-0.2,0.6-0.5c0,0,0,0,0,0c0-0.2-0.1-0.3-0.2-0.4c0.1-0.1,0.2-0.3,0.2-0.4c0-0.3-0.3-0.5-0.6-0.5l0,0
			c-0.2,0-0.3,0.1-0.5,0.2c-0.1-0.1-0.3-0.2-0.5-0.2c-0.3,0-0.5,0.2-0.6,0.5c0,0,0,0,0,0l0,0c0,0.2,0.1,0.3,0.2,0.4
			c-0.1,0.1-0.2,0.3-0.2,0.4c0,0.3,0.3,0.5,0.6,0.5c0,0,0,0,0,0c0.1,0,0.2,0,0.2,0V56c-0.3-0.3-0.7-0.4-1.2-0.4h-0.3
			c-0.1,0-0.1,0-0.1,0.1c0,0,0,0,0,0c0.2,0.7,0.9,1.2,1.6,1.2h0.5c0.7,0.1,1.4-0.4,1.6-1.2C120.8,55.7,120.7,55.7,120.6,55.7
			C120.7,55.6,120.6,55.6,120.6,55.7L120.6,55.7z M118.9,54.8c-0.2,0-0.3-0.1-0.4-0.3c0,0,0,0,0,0c0-0.2,0.1-0.4,0.3-0.4
			c0.2,0,0.4,0.1,0.4,0.3C119.3,54.6,119.1,54.8,118.9,54.8C118.9,54.8,118.9,54.8,118.9,54.8z M205.1,55.7h-0.3
			c-0.4,0-0.8,0.1-1.2,0.4v-0.6c0.1,0,0.2,0,0.2,0c0.3,0,0.6-0.2,0.6-0.5c0,0,0,0,0,0c0-0.2-0.1-0.3-0.2-0.4
			c0.1-0.1,0.2-0.3,0.2-0.4c0-0.3-0.3-0.5-0.6-0.5l0,0c-0.2,0-0.3,0.1-0.5,0.2c-0.1-0.1-0.3-0.2-0.5-0.2c-0.3,0-0.5,0.2-0.6,0.5
			c0,0,0,0,0,0l0,0c0,0.2,0.1,0.3,0.2,0.4c-0.1,0.1-0.2,0.3-0.2,0.4c0,0.3,0.3,0.5,0.6,0.5c0,0,0,0,0,0c0.1,0,0.2,0,0.2,0V56
			c-0.3-0.3-0.7-0.4-1.2-0.4h-0.4c-0.1,0-0.1,0-0.1,0.1c0,0,0,0,0,0c0.2,0.7,0.9,1.2,1.6,1.2h0.5c0.7,0.1,1.4-0.4,1.6-1.2
			C205.2,55.7,205.2,55.7,205.1,55.7C205.1,55.6,205.1,55.6,205.1,55.7L205.1,55.7z M203.4,54.8c-0.2,0-0.3-0.1-0.4-0.3c0,0,0,0,0,0
			c0-0.2,0.1-0.4,0.3-0.4c0.2,0,0.4,0.1,0.4,0.3C203.8,54.6,203.6,54.8,203.4,54.8C203.4,54.8,203.4,54.8,203.4,54.8z M127.1,55.7
			h-0.3c-0.4,0-0.8,0.1-1.2,0.4v-0.6c0.1,0,0.2,0,0.2,0c0.3,0,0.6-0.2,0.6-0.5c0-0.2-0.1-0.3-0.2-0.4c0.1-0.1,0.2-0.3,0.2-0.4
			c0-0.3-0.3-0.5-0.5-0.5c0,0,0,0,0,0l0,0c-0.2,0-0.3,0.1-0.5,0.2c-0.1-0.1-0.3-0.2-0.5-0.2c-0.3,0-0.6,0.2-0.6,0.5c0,0,0,0,0,0l0,0
			c0,0.2,0.1,0.3,0.2,0.4c-0.1,0.1-0.2,0.3-0.2,0.4c0,0.3,0.3,0.5,0.6,0.5c0,0,0,0,0,0c0.1,0,0.2,0,0.2,0V56
			c-0.3-0.3-0.7-0.4-1.2-0.4h-0.3c-0.1,0-0.1,0-0.1,0.1c0,0,0,0,0,0c0.2,0.7,0.9,1.2,1.6,1.2h0.5c0.7,0.1,1.4-0.4,1.6-1.2
			C127.3,55.7,127.2,55.7,127.1,55.7C127.1,55.6,127.1,55.6,127.1,55.7L127.1,55.7z M125.4,54.8c-0.2,0-0.3-0.1-0.3-0.3
			c0-0.2,0.1-0.3,0.3-0.3c0,0,0,0,0,0c0.2,0,0.3,0.1,0.4,0.3C125.7,54.7,125.6,54.8,125.4,54.8C125.4,54.8,125.4,54.8,125.4,54.8
			L125.4,54.8z M211.6,55.7h-0.3c-0.4,0-0.8,0.1-1.2,0.4v-0.6c0.1,0,0.2,0,0.2,0c0.3,0,0.6-0.2,0.6-0.5c0-0.2-0.1-0.3-0.2-0.4
			c0.1-0.1,0.2-0.3,0.2-0.4c0-0.3-0.3-0.5-0.5-0.5c0,0,0,0,0,0l0,0c-0.2,0-0.3,0.1-0.5,0.2c-0.1-0.1-0.3-0.2-0.5-0.2
			c-0.3,0-0.6,0.2-0.6,0.5c0,0,0,0,0,0l0,0c0,0.2,0.1,0.3,0.2,0.4c-0.1,0.1-0.2,0.3-0.2,0.4c0,0.3,0.3,0.5,0.6,0.5c0,0,0,0,0,0
			c0.1,0,0.2,0,0.2,0V56c-0.3-0.3-0.7-0.4-1.2-0.4h-0.3c-0.1,0-0.1,0-0.1,0.1c0,0,0,0,0,0c0.2,0.7,0.9,1.2,1.6,1.2h0.4
			c0.7,0.1,1.4-0.4,1.6-1.2C211.7,55.7,211.7,55.7,211.6,55.7z M209.9,54.8c-0.2,0-0.3-0.1-0.3-0.3c0-0.2,0.1-0.3,0.3-0.3
			c0,0,0,0,0,0c0.2,0,0.3,0.1,0.4,0.3C210.2,54.7,210.1,54.8,209.9,54.8C209.9,54.8,209.9,54.8,209.9,54.8L209.9,54.8z M114.2,55.7
			h-0.3c-0.4,0-0.8,0.1-1.2,0.4v-0.6c0.1,0,0.2,0,0.2,0c0.3,0,0.6-0.2,0.6-0.5c0-0.2-0.1-0.3-0.2-0.4c0.1-0.1,0.2-0.3,0.2-0.4
			c0-0.3-0.3-0.5-0.6-0.5l0,0c-0.2,0.3-0.6,0.3-0.9,0c0,0,0,0,0,0c-0.3,0-0.6,0.2-0.6,0.5c0,0,0,0,0,0l0,0c0,0.2,0.1,0.3,0.2,0.4
			c-0.1,0.1-0.2,0.3-0.2,0.4c0,0.3,0.3,0.5,0.6,0.5c0,0,0,0,0,0c0.1,0,0.2,0,0.2,0V56c-0.3-0.3-0.7-0.4-1.2-0.4h-0.3
			c-0.1,0-0.1,0-0.1,0.1c0,0,0,0,0,0c0.2,0.7,0.9,1.2,1.6,1.2h0.5c0.7,0.1,1.4-0.4,1.6-1.2C114.3,55.7,114.2,55.7,114.2,55.7
			C114.2,55.6,114.1,55.6,114.2,55.7L114.2,55.7z M112.4,54.8c-0.2,0-0.3-0.1-0.3-0.3c0,0,0,0,0,0c0-0.2,0.2-0.3,0.3-0.3
			c0,0,0,0,0,0c0.2,0,0.3,0.1,0.4,0.3C112.8,54.7,112.6,54.8,112.4,54.8C112.4,54.8,112.4,54.8,112.4,54.8L112.4,54.8z M198.6,55.7
			h-0.3c-0.4,0-0.8,0.1-1.2,0.4v-0.6c0.1,0,0.2,0,0.2,0c0.3,0,0.6-0.2,0.6-0.5c0-0.2-0.1-0.3-0.2-0.4c0.1-0.1,0.2-0.3,0.2-0.4
			c0-0.3-0.3-0.5-0.6-0.5l0,0c-0.2,0.3-0.6,0.3-0.9,0c0,0,0,0,0,0c-0.3,0-0.6,0.2-0.6,0.5c0,0,0,0,0,0l0,0c0,0.2,0.1,0.3,0.2,0.4
			c-0.1,0.1-0.2,0.3-0.2,0.4c0,0.3,0.3,0.5,0.6,0.5c0.1,0,0.2,0,0.2,0V56c-0.3-0.3-0.7-0.4-1.2-0.4h-0.3c-0.1,0-0.1,0-0.1,0.1
			c0,0,0,0,0,0c0.2,0.7,0.9,1.2,1.6,1.2h0.5c0.7,0.1,1.4-0.4,1.6-1.2C198.7,55.7,198.7,55.7,198.6,55.7
			C198.6,55.7,198.6,55.7,198.6,55.7z M196.8,54.8c-0.2,0-0.3-0.1-0.3-0.3c0-0.2,0.1-0.3,0.3-0.3c0,0,0,0,0,0c0.2,0,0.3,0.1,0.4,0.3
			C197.2,54.7,197,54.8,196.8,54.8L196.8,54.8z M107.6,55.7h-0.3c-0.4,0-0.8,0.1-1.2,0.4v-0.6c0.1,0,0.2,0,0.2,0
			c0.3,0,0.6-0.2,0.6-0.5c0-0.2-0.1-0.3-0.2-0.4c0.1-0.1,0.2-0.3,0.2-0.4c0-0.3-0.3-0.5-0.6-0.5l0,0c-0.2,0-0.3,0.1-0.5,0.2
			c-0.1-0.1-0.3-0.2-0.5-0.2c-0.3,0-0.6,0.2-0.6,0.5c0,0,0,0,0,0l0,0c0,0.2,0.1,0.3,0.2,0.4c-0.1,0.1-0.2,0.3-0.2,0.4
			c0,0.3,0.3,0.5,0.6,0.5c0,0,0,0,0,0c0.1,0,0.2,0,0.2,0V56c-0.3-0.3-0.7-0.4-1.2-0.4h-0.3c-0.1,0-0.1,0-0.1,0.1c0,0,0,0,0,0
			c0.2,0.7,0.9,1.2,1.6,1.2h0.5c0.7,0.1,1.4-0.4,1.6-1.2C107.8,55.7,107.8,55.7,107.6,55.7C107.7,55.6,107.7,55.6,107.6,55.7
			L107.6,55.7z M105.9,54.8c-0.2,0-0.3-0.1-0.3-0.3c0,0,0,0,0,0c0-0.2,0.2-0.3,0.3-0.3c0.2,0,0.3,0.2,0.3,0.3
			C106.2,54.7,106.1,54.8,105.9,54.8L105.9,54.8z M94.4,56.7L91.8,54h1c0.8,0,1.2-0.8,0.7-1.3l-2.8-2.9H92c0.6,0,1-0.6,0.6-1
			L88.7,45c-0.3-0.3-0.8-0.3-1.1,0l-3.9,3.8c-0.4,0.4-0.1,1,0.6,1h1.3l-2.7,2.9c-0.5,0.5-0.1,1.3,0.7,1.3h1l-2.6,2.7
			c-0.3,0.4-0.3,0.9,0,1.2c0.2,0.2,0.5,0.3,0.7,0.2h11c0.5,0,0.9-0.3,0.9-0.8C94.6,57.1,94.6,56.9,94.4,56.7L94.4,56.7z M267.5,56.7
			l-2.6-2.7h1c0.8,0,1.2-0.8,0.7-1.3l-2.8-2.9h1.3c0.6,0,1-0.6,0.6-1l-3.9-3.8c-0.3-0.3-0.8-0.3-1.1,0l-3.9,3.8
			c-0.4,0.4-0.1,1,0.6,1h1.3l-2.8,2.9c-0.5,0.5-0.1,1.3,0.7,1.3h1l-2.6,2.7c-0.3,0.3-0.3,0.9,0,1.2c0.2,0.2,0.4,0.3,0.7,0.2h11.1
			c0.5,0,0.9-0.3,0.9-0.8C267.8,57.1,267.7,56.9,267.5,56.7L267.5,56.7z M229.7,56.7l-2.6-2.7h1c0.8,0,1.2-0.8,0.7-1.3l-2.7-2.9h1.3
			c0.6,0,1-0.6,0.6-1l-3.9-3.8c-0.3-0.3-0.8-0.3-1.1,0l-3.9,3.8c-0.4,0.4-0.1,1,0.6,1h1.3l-2.8,2.9c-0.5,0.5-0.1,1.3,0.7,1.3h1
			l-2.6,2.7c-0.3,0.4-0.3,0.9,0.1,1.2c0.2,0.2,0.4,0.2,0.7,0.2h11c0.5,0,0.9-0.4,0.9-0.9C230,57.1,229.9,56.9,229.7,56.7L229.7,56.7
			z M51.3,56.7L48.7,54h1c0.8,0,1.2-0.8,0.7-1.3l-2.8-2.9h1.3c0.6,0,1-0.6,0.6-1L45.6,45c-0.3-0.3-0.8-0.3-1.1,0l-3.9,3.8
			c-0.4,0.4-0.1,1,0.6,1h1.3l-2.8,2.9c-0.5,0.5-0.1,1.3,0.7,1.3h1.1l-2.6,2.7c-0.3,0.4-0.3,0.9,0.1,1.2c0.2,0.2,0.4,0.2,0.7,0.2
			h11.1c0.5,0,0.9-0.3,0.9-0.8C51.5,57.1,51.5,56.9,51.3,56.7L51.3,56.7z M192.1,55.7h-0.3c-0.4,0-0.8,0.1-1.2,0.4v-0.6
			c0.1,0,0.2,0,0.2,0c0.3,0,0.6-0.2,0.6-0.5c0-0.2-0.1-0.3-0.2-0.4c0.1-0.1,0.2-0.3,0.2-0.4c0-0.3-0.3-0.5-0.6-0.5l0,0
			c-0.2,0-0.3,0.1-0.5,0.2c-0.1-0.1-0.3-0.2-0.5-0.2c-0.3,0-0.6,0.2-0.6,0.5c0,0,0,0,0,0l0,0c0,0.2,0.1,0.3,0.2,0.4
			c-0.1,0.1-0.2,0.3-0.2,0.4c0,0.3,0.3,0.5,0.6,0.5c0,0,0,0,0,0c0.1,0,0.2,0,0.2,0V56c-0.3-0.3-0.7-0.4-1.2-0.4h-0.3
			c-0.1,0-0.1,0-0.1,0.1c0,0,0,0,0,0c0.2,0.7,0.9,1.2,1.6,1.2h0.5c0.7,0.1,1.4-0.4,1.6-1.2C192.2,55.7,192.2,55.7,192.1,55.7
			L192.1,55.7z M190.4,54.8c-0.2,0-0.3-0.1-0.3-0.3c0-0.2,0.1-0.3,0.3-0.3c0,0,0,0,0,0c0.2,0,0.3,0.1,0.3,0.3c0,0,0,0,0,0
			C190.7,54.7,190.6,54.8,190.4,54.8L190.4,54.8z"/>
		<path class="st4" d="M83.3,9.8c0.1-0.2,0.1-0.3,0.1-0.5c-0.1-0.8-0.7-1.4-1.5-1.4c-0.3,0-0.6,0.1-0.9,0.3
			c-0.5-0.8-1.4-1.2-2.3-1.2c-1.4-0.1-2.5,1-2.6,2.4c0,0,0,0,0,0v0.1c-0.9,0.3-1.5,1.1-1.5,2c0.1,1.2,1.1,2.2,2.3,2.1c0,0,0,0,0,0h6
			c1.1,0,2-0.8,2.1-1.9C84.9,10.7,84.2,9.9,83.3,9.8L83.3,9.8z M30.1-3.1c0.1-0.2,0.1-0.3,0.1-0.5c0-0.8-0.7-1.4-1.5-1.4
			c-0.3,0-0.6,0.1-0.9,0.2c-0.5-0.8-1.3-1.2-2.2-1.2c-1.4-0.1-2.5,1-2.6,2.4v0.1c-0.9,0.3-1.5,1.1-1.5,2c0.1,1.2,1.1,2.2,2.3,2.1
			c0,0,0,0,0,0h6c1.1,0,2-0.8,2.1-1.9C31.8-2.2,31-2.9,30.1-3.1z M60.6,20.1L60.2,21l-1.1,0.1c-0.1,0-0.2,0.1-0.2,0.2
			c0,0.1,0,0.1,0.1,0.1l0.8,0.7l-0.2,1c0,0.1,0.1,0.2,0.2,0.2c0,0,0.1,0,0.1,0l1-0.5l0.9,0.5c0.1,0.1,0.3,0,0.3-0.1c0,0,0-0.1,0-0.1
			l-0.2-1l0.8-0.7c0.1-0.1,0.1-0.2,0-0.3c0,0-0.1-0.1-0.1-0.1L61.5,21L61,20.1C61,20,60.8,20,60.6,20.1
			C60.7,20.1,60.7,20.1,60.6,20.1L60.6,20.1z M43.5,6.6L43,7.4l-1.1,0.1c-0.1,0-0.2,0.1-0.2,0.2c0,0.1,0,0.1,0.1,0.1l0.8,0.7l-0.2,1
			c0,0.1,0.1,0.2,0.2,0.2c0,0,0.1,0,0.1,0l1-0.5l0.9,0.5c0.1,0.1,0.3,0,0.3-0.1c0,0,0-0.1,0-0.1l-0.2-1l0.8-0.7
			c0.1-0.1,0.1-0.2,0-0.3c0,0-0.1-0.1-0.1-0.1l-1.1-0.1l-0.5-0.9c-0.1-0.1-0.2-0.2-0.3-0.1C43.5,6.5,43.5,6.5,43.5,6.6z"/>
		<path class="st3" d="M61.8-7.7l-0.5,0.9l-1.1,0.1c-0.1,0-0.2,0.1-0.2,0.2c0,0,0,0.1,0.1,0.1l0.8,0.7l-0.2,1c0,0.1,0.1,0.2,0.2,0.2
			c0,0,0.1,0,0.1,0l1-0.5L63-4.4c0.1,0.1,0.3,0,0.3-0.1c0,0,0-0.1,0-0.1l-0.2-1l0.8-0.7c0.1-0.1,0.1-0.2,0-0.3c0,0-0.1-0.1-0.1-0.1
			l-1.1-0.1l-0.5-0.9C62.1-7.8,62-7.8,61.8-7.7C61.8-7.7,61.8-7.7,61.8-7.7z M24.2,23.9l-0.5,0.9l-1.1,0.1c-0.1,0-0.2,0.1-0.2,0.2
			c0,0,0,0.1,0.1,0.1l0.8,0.7l-0.2,1c0,0.1,0.1,0.2,0.2,0.2c0,0,0.1,0,0.1,0l1-0.5l0.9,0.5c0.1,0.1,0.3,0,0.3-0.1c0,0,0-0.1,0-0.1
			l-0.2-1l0.8-0.7c0.1-0.1,0.1-0.2,0-0.3c0,0-0.1-0.1-0.1-0.1l-1.1-0.1l-0.5-0.9c-0.1-0.1-0.2-0.2-0.3-0.1
			C24.3,23.8,24.3,23.9,24.2,23.9L24.2,23.9z"/>
		<path class="st4" d="M232.6-3.4c0.1-0.2,0.1-0.3,0.1-0.5c-0.1-0.8-0.7-1.4-1.5-1.4c-0.3,0-0.6,0.1-0.9,0.3
			c-0.5-0.8-1.3-1.2-2.2-1.2c-1.4-0.1-2.5,1-2.6,2.4v0.1c-0.9,0.3-1.5,1.1-1.5,2c0.1,1.2,1.1,2.2,2.3,2.1c0,0,0,0,0,0h6
			c1.1,0,2-0.8,2-1.9C234.3-2.5,233.5-3.2,232.6-3.4z M276,16.6c0.1-0.2,0.1-0.3,0.1-0.5c-0.1-0.8-0.7-1.4-1.5-1.4
			c-0.3,0-0.6,0.1-0.9,0.3c-0.5-0.8-1.3-1.2-2.3-1.2c-1.4-0.1-2.5,1-2.6,2.4v0.1c-0.9,0.3-1.5,1.1-1.5,2c0.1,1.2,1.1,2.2,2.3,2.1
			c0,0,0,0,0,0h6c1.1,0,2-0.8,2.1-1.9C277.6,17.5,276.9,16.7,276,16.6z M234.1,25.9l-0.5,0.9l-1.1,0.1c-0.1,0-0.2,0.1-0.2,0.2
			c0,0.1,0,0.1,0.1,0.1l0.8,0.7l-0.2,1c0,0.1,0.1,0.2,0.2,0.2c0,0,0.1,0,0.1,0l1-0.5l0.9,0.5c0.1,0.1,0.3,0,0.3-0.1c0,0,0-0.1,0-0.1
			l-0.2-1l0.8-0.7c0.1-0.1,0.1-0.2,0-0.3c0,0-0.1-0.1-0.1-0.1l-1.1-0.1l-0.5-0.9C234.4,25.8,234.3,25.8,234.1,25.9
			C234.1,25.8,234.1,25.9,234.1,25.9L234.1,25.9z M250.7,21.3c-0.2,0.2-0.2,0.4,0,0.6c0,0,0,0,0,0c0.2,0.2,0.6,0.2,0.8,0
			c0.2-0.2,0.2-0.4,0-0.6c0,0,0,0,0,0C251.3,21.1,250.9,21.1,250.7,21.3L250.7,21.3z M253.4,19.1c0.1-0.1,0.1-0.2,0-0.2c0,0,0,0,0,0
			l-0.4-0.4c-0.1,0-0.1,0-0.2,0l-2.7,1.1c-0.6,0.2-1,0.7-1.3,1.2c-0.4,0.8-0.2,1.8,0.5,2.4c0.7,0.6,1.7,0.8,2.7,0.5
			c0.6-0.2,1.1-0.6,1.3-1.2l0.1-0.2h0c0.2,0,0.3,0,0.4-0.1l0.5-0.4c0.2-0.2,0.2-0.4,0-0.6c0,0,0,0,0,0c-0.1-0.1-0.2-0.1-0.3-0.1
			l0.5-0.9c0-0.1,0-0.1,0-0.2l-0.4-0.4c-0.1-0.1-0.2-0.1-0.2,0l-1.1,1l-0.5-0.5L253.4,19.1L253.4,19.1z M250.1,22.8
			c-0.1,0.1-0.2,0.1-0.2,0l0,0c-0.1-0.1-0.1-0.2,0-0.2c0,0,0,0,0,0c0.1-0.1,0.2-0.1,0.2,0C250.1,22.6,250.1,22.7,250.1,22.8
			L250.1,22.8z M251.1,23.2c-0.1,0.1-0.2,0.1-0.2,0c-0.1-0.1-0.1-0.2,0-0.2c0,0,0,0,0,0c0.1-0.1,0.2-0.1,0.2,0
			C251.1,23,251.1,23.1,251.1,23.2L251.1,23.2z M249.6,21.9c-0.1,0.1-0.2,0.1-0.2,0c-0.1-0.1-0.1-0.2,0-0.2c0,0,0,0,0,0
			c0.1-0.1,0.2-0.1,0.2,0C249.7,21.7,249.7,21.8,249.6,21.9L249.6,21.9z M251.7,22.2c-0.3,0.3-0.9,0.3-1.2,0c-0.3-0.3-0.3-0.8,0-1.1
			c0,0,0,0,0,0c0.4-0.3,0.9-0.3,1.2,0C252,21.4,252,21.9,251.7,22.2C251.7,22.2,251.7,22.2,251.7,22.2L251.7,22.2z M264.9,32.4
			l-0.5,0.9l-1.1,0.1c-0.1,0-0.2,0.1-0.2,0.2c0,0.1,0,0.1,0.1,0.2l0.8,0.7l-0.2,1c0,0.1,0.1,0.2,0.2,0.2c0,0,0.1,0,0.1,0l1-0.5
			l0.9,0.5c0.1,0.1,0.3,0,0.3-0.1c0,0,0-0.1,0-0.1l-0.2-0.9l0.8-0.7c0.1-0.1,0.1-0.2,0-0.3c0,0-0.1-0.1-0.2-0.1l-1.1-0.1l-0.5-0.9
			C265.3,32.3,265.1,32.3,264.9,32.4C265,32.4,264.9,32.4,264.9,32.4L264.9,32.4z M281.8-5.1l-0.5,0.9l-1.1,0.1
			c-0.1,0-0.2,0.1-0.2,0.2c0,0.1,0,0.1,0.1,0.1l0.8,0.7l-0.2,1c0,0.1,0.1,0.2,0.2,0.3c0,0,0.1,0,0.1,0l1-0.5l0.9,0.5
			c0.1,0.1,0.3,0,0.3-0.1c0,0,0-0.1,0-0.1l-0.2-0.9l0.8-0.7c0.1-0.1,0.1-0.2,0-0.3c0,0-0.1-0.1-0.1-0.1l-1.1-0.1l-0.5-0.9
			C282.2-5.2,282-5.3,281.8-5.1C281.9-5.2,281.9-5.1,281.8-5.1L281.8-5.1z"/>
		<path class="st3" d="M250.7,7.1L250.2,8l-1.1,0.1c-0.1,0-0.2,0.1-0.2,0.2c0,0.1,0,0.1,0.1,0.1l0.8,0.7l-0.2,1
			c0,0.1,0.1,0.2,0.2,0.3c0,0,0.1,0,0.1,0l1-0.5l0.9,0.5c0.1,0.1,0.3,0,0.3-0.1c0,0,0-0.1,0-0.1l-0.2-1l0.8-0.7
			c0.1-0.1,0.1-0.2,0-0.3c0,0-0.1-0.1-0.1-0.1L251.6,8l-0.5-0.9C251,7,250.9,6.9,250.8,7C250.7,7,250.7,7,250.7,7.1L250.7,7.1z
			 M296.1,16.7l-0.5,0.9l-1.1,0.1c-0.1,0-0.2,0.1-0.2,0.2c0,0.1,0,0.1,0.1,0.1l0.8,0.7l-0.2,1c0,0.1,0.1,0.2,0.2,0.2
			c0,0,0.1,0,0.1,0l1-0.5l0.9,0.5c0.1,0.1,0.3,0,0.3-0.1c0,0,0-0.1,0-0.1l-0.2-1l0.8-0.7c0.1-0.1,0.1-0.2,0-0.3c0,0-0.1-0.1-0.1-0.1
			l-1.1-0.1l-0.5-0.9C296.4,16.5,296.3,16.5,296.1,16.7C296.1,16.6,296.1,16.6,296.1,16.7L296.1,16.7z"/>
	</g>
</g>
<g>
	<defs>
		<rect id="SVGID_7_" x="316" y="-31.4" width="309" height="88.3"/>
	</defs>
	<clipPath id="SVGID_4_">
		<use xlink:href="#SVGID_7_"  style="overflow:visible;"/>
	</clipPath>
	<g class="st5">
		<path class="st1" d="M435.2,57l-16.7-23.6c-0.6-0.8-1.8-1-2.6-0.4c-0.2,0.1-0.3,0.3-0.4,0.4L398.8,57c-0.2,0.3-0.3,0.6-0.3,0.9
			c0,0.3,0.1,0.5,0.2,0.8c0.4,0.5,1,0.8,1.6,0.8h33.4c0.6,0,1.3-0.3,1.6-0.8c0.1-0.2,0.2-0.5,0.2-0.8
			C435.5,57.6,435.4,57.2,435.2,57z M417,37.5l4.9,6.9H417l-3.7,3.4l-2.3-2L417,37.5z M619.7,57l-16.7-23.6c-0.6-0.8-1.8-1-2.6-0.4
			c-0.2,0.1-0.3,0.3-0.4,0.4L583.3,57c-0.2,0.3-0.3,0.6-0.3,0.9c0,0.3,0.1,0.5,0.2,0.8c0.4,0.5,1,0.8,1.6,0.8h33.4
			c0.6,0,1.3-0.3,1.6-0.8c0.1-0.2,0.2-0.5,0.2-0.8C620.1,57.6,619.9,57.2,619.7,57z M601.6,37.5l4.9,6.9h-4.9l-3.7,3.4l-2.3-2
			L601.6,37.5z M366.5,57.4l-11.2-15.6c-0.7-0.8-1.8-0.9-2.7-0.3c-0.1,0.1-0.2,0.2-0.3,0.3l-1.9,2.7l4,5.5c0.1,0.2,0.1,0.4-0.1,0.5
			c0,0,0,0,0,0l-0.8,0.5c-0.2,0.1-0.5,0-0.6-0.2l-3.5-4.9l-4.1-5.8c-0.7-0.9-2-1-2.9-0.3c-0.1,0.1-0.2,0.2-0.3,0.3l-12,17.1
			c-0.7,1,0.1,2.3,1.5,2.3h33.6C366.4,59.6,367.2,58.4,366.5,57.4L366.5,57.4z M527.7,56.3l-2.9-3.1h1.2c0.5,0.1,0.9-0.3,1-0.8
			c0-0.2,0-0.5-0.2-0.7l-3.1-3.3h1.4c0.7,0,1.1-0.7,0.7-1.1l-4.4-4.3c-0.4-0.3-0.9-0.3-1.3,0l-4.4,4.3c-0.4,0.4-0.1,1.1,0.7,1.1h1.5
			l-3.1,3.3c-0.6,0.6-0.1,1.4,0.8,1.4h1.2l-2.9,3.1c-0.4,0.4-0.3,1,0.1,1.4c0.2,0.2,0.5,0.3,0.8,0.3H527c0.5,0.1,1-0.3,1.1-0.9
			C528.1,56.8,528,56.5,527.7,56.3L527.7,56.3z"/>
		<path class="st1" d="M533.8,56.3l-2.9-3.1h1.2c0.5,0.1,0.9-0.3,1-0.8c0-0.2,0-0.5-0.2-0.7l-3.1-3.3h1.4c0.7,0,1.1-0.7,0.7-1.1
			l-4.4-4.3c-0.4-0.3-0.9-0.3-1.3,0l-4.4,4.3c-0.4,0.4-0.1,1.1,0.7,1.1h1.4l-3.1,3.3c-0.6,0.6-0.1,1.4,0.8,1.4h1.2l-2.9,3.1
			c-0.4,0.4-0.3,1,0.1,1.4c0.2,0.2,0.5,0.3,0.8,0.3H533c0.5,0,1-0.4,1.1-0.9C534.1,56.8,534,56.5,533.8,56.3L533.8,56.3z
			 M551.7,56.3l-2.9-3.1h1.2c0.5,0.1,0.9-0.3,1-0.8c0-0.2,0-0.5-0.2-0.7l-3.1-3.3h1.4c0.7,0,1.1-0.7,0.7-1.1l-4.4-4.3
			c-0.4-0.3-0.9-0.3-1.3,0l-4.4,4.3c-0.4,0.4-0.1,1.1,0.7,1.1h1.5l-3.1,3.3c-0.6,0.6-0.1,1.4,0.8,1.4h1.2l-2.9,3.1
			c-0.4,0.4-0.3,1,0.1,1.4c0.2,0.2,0.5,0.3,0.8,0.3H551c0.5,0,1-0.4,1.1-0.9C552.1,56.8,552,56.5,551.7,56.3L551.7,56.3z
			 M578.5,56.3l-2.9-3.1h1.1c0.5,0.1,0.9-0.3,1-0.8c0-0.2,0-0.5-0.2-0.7l-3.1-3.3h1.4c0.7,0,1.1-0.7,0.7-1.1l-4.4-4.3
			c-0.4-0.3-0.9-0.3-1.3,0l-4.4,4.3c-0.4,0.4-0.1,1.1,0.7,1.1h1.5l-3.1,3.3c-0.6,0.6-0.1,1.4,0.8,1.4h1.2l-2.9,3.1
			c-0.4,0.4-0.3,1,0.1,1.4c0.2,0.2,0.5,0.3,0.8,0.3h12.4c0.5,0,1-0.4,1.1-0.9C578.8,56.8,578.7,56.5,578.5,56.3L578.5,56.3z
			 M404.8,56.3l-2.9-3.1h1.2c0.9,0,1.3-0.9,0.8-1.4l-3.1-3.3h1.4c0.7,0,1.1-0.7,0.7-1.1l-4.4-4.3c-0.4-0.3-0.9-0.3-1.3,0l-4.5,4.3
			c-0.4,0.4-0.1,1.1,0.7,1.1h1.5l-3.1,3.3c-0.6,0.6-0.1,1.4,0.8,1.4h1.2l-2.9,3.1c-0.4,0.4-0.3,1,0.1,1.4c0.2,0.2,0.5,0.3,0.8,0.3
			H404c0.5,0,1-0.4,1.1-0.9C405.1,56.8,405,56.5,404.8,56.3L404.8,56.3z M386.9,56.3l-2.9-3.1h1.2c0.5,0.1,0.9-0.3,1-0.8
			c0-0.2,0-0.5-0.2-0.7l-3.1-3.3h1.4c0.7,0,1.1-0.7,0.7-1.1l-4.4-4.3c-0.4-0.3-0.9-0.3-1.3,0l-4.4,4.3c-0.4,0.4-0.1,1.1,0.7,1.1h1.5
			l-3.1,3.3c-0.6,0.6-0.1,1.4,0.8,1.4h1.2l-2.9,3.1c-0.4,0.4-0.3,1,0.1,1.4c0.2,0.2,0.5,0.3,0.8,0.3h12.4c0.5,0,1-0.4,1-1
			C387.1,56.7,387,56.5,386.9,56.3L386.9,56.3z"/>
		<path class="st1" d="M381.3,56.3l-2.9-3.1h1.2c0.9,0,1.3-0.9,0.8-1.4l-3.1-3.3h1.4c0.7,0,1.1-0.7,0.7-1.1l-4.4-4.3
			c-0.4-0.3-0.9-0.3-1.3,0l-4.4,4.3c-0.4,0.4-0.1,1.1,0.7,1.1h1.5l-3.1,3.3c-0.6,0.6-0.1,1.4,0.8,1.4h1.2l-2.9,3.1
			c-0.4,0.4-0.3,1,0.1,1.4c0.2,0.2,0.5,0.3,0.8,0.3h12.3c0.5,0.1,1-0.3,1.1-0.9C381.6,56.8,381.5,56.5,381.3,56.3z M337.1,56.3
			l-2.9-3.1h1.2c0.5,0.1,0.9-0.3,1-0.8c0-0.2,0-0.5-0.2-0.7l-3.1-3.3h1.4c0.7,0,1.1-0.7,0.7-1.1l-4.4-4.3c-0.4-0.3-0.9-0.3-1.3,0
			l-4.4,4.3c-0.4,0.4-0.1,1.1,0.7,1.1h1.5l-3.1,3.3c-0.6,0.6-0.1,1.4,0.8,1.4h1.1l-2.9,3.1c-0.4,0.4-0.3,1,0.1,1.4
			c0.2,0.2,0.5,0.3,0.8,0.3h12.4c0.5,0,1-0.4,1.1-0.9C337.4,56.8,337.3,56.5,337.1,56.3L337.1,56.3z"/>
		<path class="st2" d="M489.2,48.3h6.5v5.2h-6.5V48.3z"/>
		<path class="st1" d="M500.6,50.4l-1.7-1.3v-3.6c0-0.2-0.2-0.4-0.5-0.4h-1.9c-0.2,0-0.4,0.2-0.5,0.4v1.4l-3-2.4
			c-0.4-0.4-1.1-0.4-1.5,0l-7.4,5.9c-0.1,0.1-0.2,0.2-0.2,0.3c0,0.1,0.1,0.2,0.1,0.3l0.6,0.6c0.1,0.1,0.2,0.1,0.3,0.1
			c0.1,0,0.2,0,0.3-0.1l0.5-0.4v5.5c0,0.5,0.4,0.9,0.9,0.8c0,0,0,0,0,0H498c0.5,0,0.9-0.4,0.9-0.8v-5.5l0.4,0.4
			c0.1,0.1,0.2,0.1,0.3,0.1c0.1,0,0.2,0,0.3-0.1l0.6-0.6c0.1-0.1,0.1-0.2,0.1-0.3C500.7,50.6,500.7,50.5,500.6,50.4z M494.3,52
			c0,0.3-0.3,0.6-0.6,0.6h-2.5c-0.3,0-0.6-0.2-0.6-0.5c0,0,0,0,0,0v-2.2c0-0.3,0.3-0.6,0.6-0.6h2.5c0.3,0,0.6,0.3,0.6,0.6V52z"/>
		<path class="st3" d="M464.2,56.4c0,0.2,0.1,0.5,0.3,0.5c0,0,0,0,0,0h0.1c0.2,0,0.4-0.1,0.5-0.3l0.4-1.3l-0.8-0.7L464.2,56.4z
			 M464.5,53.8l0.6-2.1c0-0.1-0.1-0.2-0.2-0.2c-0.6-0.2-1.2,0.2-1.4,0.8l-0.4,1.3c0,0.1,0.1,0.2,0.2,0.3c0,0,0,0,0,0l0.9,0.2
			C464.3,54,464.4,53.9,464.5,53.8z M468.4,52.3h-0.2c-0.1,0-0.2,0.1-0.2,0.2v0.2h-0.5l-0.7-0.6c-0.2-0.2-0.4-0.2-0.6-0.2
			c-0.4,0-0.7,0.2-0.8,0.6l-0.4,1.4V54c0,0.1,0.1,0.2,0.1,0.3l1.3,1.1v1.1c0,0.2,0.2,0.4,0.5,0.4c0,0,0,0,0,0c0.2,0,0.4-0.2,0.5-0.4
			v-1.1c0-0.2-0.1-0.4-0.3-0.6l-0.7-0.6l0,0l0.3-1l0.3,0.3c0.1,0.1,0.2,0.1,0.3,0.1h0.7v3.2c0,0.1,0.1,0.2,0.2,0.2h0.2
			c0.1,0,0.2-0.1,0.2-0.2v-4.2C468.6,52.4,468.6,52.3,468.4,52.3C468.4,52.3,468.4,52.3,468.4,52.3L468.4,52.3z M466.6,51.5
			c0.4,0,0.7-0.3,0.7-0.6c0-0.4-0.3-0.6-0.7-0.6c-0.4,0-0.7,0.3-0.7,0.6C465.9,51.2,466.2,51.5,466.6,51.5
			C466.6,51.4,466.6,51.4,466.6,51.5L466.6,51.5z M379.9,54.9c-0.6,0.3-1.4,0.1-1.7-0.5c0,0,0-0.1-0.1-0.1c-0.9,0.2-1.5,0.9-1.5,1.8
			v0.3c-0.2,0-0.3-0.1-0.3-0.3l0,0v-2c-0.1-0.4-0.5-0.6-0.9-0.5c-0.3,0.1-0.5,0.3-0.5,0.5l0,0v0.4c0,0.1,0.1,0.3,0.3,0.3
			c0,0,0,0,0,0l0,0c0.2,0,0.3-0.1,0.3-0.3c0,0,0,0,0,0v-0.4c0-0.1,0.1-0.1,0.2-0.1c0.1,0,0.1,0.1,0.1,0.1v2c0,0.5,0.4,0.8,0.9,0.8
			h2.2c0.1,0,0.1-0.1,0.1-0.1v-0.1c0-0.2-0.1-0.3-0.3-0.3h-0.6l1.4-0.9l0.3,0.9v0.1v0.3c0,0.1,0.1,0.1,0.1,0.1c0,0,0,0,0,0h0.3
			c0.1,0,0.1-0.1,0.2-0.1v-0.3c0-0.1,0-0.2,0-0.3L379.9,54.9L379.9,54.9z M380.3,53.2h-0.2c-0.1-0.3-0.5-0.5-0.8-0.5
			c-0.4,0-0.7,0.2-0.8,0.5h-0.2c-0.2,0-0.4,0.2-0.4,0.4c0,0.2,0.2,0.4,0.4,0.4c0,0,0,0,0,0h0.1c0,0.5,0.5,0.9,1,0.8
			c0.4,0,0.8-0.4,0.8-0.8h0.1c0.2,0,0.4-0.2,0.4-0.4C380.7,53.3,380.5,53.2,380.3,53.2C380.3,53.2,380.3,53.2,380.3,53.2z
			 M378.9,53.6c-0.1,0-0.1,0-0.2-0.1c0-0.1,0-0.1,0.1-0.2c0,0,0,0,0.1,0c0.1,0,0.1,0,0.2,0.1C379.1,53.5,379,53.6,378.9,53.6
			C378.9,53.6,378.9,53.6,378.9,53.6z M379.6,53.6c-0.1,0-0.1-0.1-0.1-0.1l0,0c0-0.1,0.1-0.1,0.1-0.1c0,0,0,0,0,0
			c0.1,0,0.1,0,0.2,0.1C379.8,53.5,379.8,53.6,379.6,53.6C379.7,53.6,379.7,53.6,379.6,53.6L379.6,53.6z M436.7,55.7h-0.3
			c-0.4,0-0.8,0.1-1.2,0.4v-0.6c0.1,0,0.2,0,0.2,0c0.3,0,0.6-0.2,0.6-0.5c0,0,0,0,0,0c0-0.2-0.1-0.3-0.2-0.4
			c0.1-0.1,0.2-0.3,0.2-0.4c0-0.3-0.3-0.5-0.6-0.5l0,0c-0.2,0-0.3,0.1-0.5,0.2c-0.1-0.1-0.3-0.2-0.5-0.2c-0.3,0-0.5,0.2-0.6,0.5
			c0,0,0,0,0,0l0,0c0,0.2,0.1,0.3,0.2,0.4c-0.1,0.1-0.2,0.3-0.2,0.4c0,0.3,0.3,0.5,0.6,0.5c0,0,0,0,0,0c0.1,0,0.2,0,0.2,0V56
			c-0.3-0.3-0.7-0.4-1.2-0.4h-0.3c-0.1,0-0.1,0-0.1,0.1c0,0,0,0,0,0c0.2,0.7,0.9,1.2,1.6,1.2h0.5c0.7,0.1,1.4-0.4,1.6-1.2
			C436.8,55.7,436.8,55.7,436.7,55.7C436.7,55.6,436.7,55.6,436.7,55.7L436.7,55.7z M435,54.8c-0.2,0-0.3-0.1-0.4-0.3c0,0,0,0,0,0
			c0-0.2,0.1-0.4,0.3-0.4c0.2,0,0.4,0.1,0.4,0.3C435.3,54.6,435.2,54.8,435,54.8C435,54.8,435,54.8,435,54.8z M521.2,55.7h-0.3
			c-0.4,0-0.8,0.1-1.2,0.4v-0.6c0.1,0,0.2,0,0.2,0c0.3,0,0.6-0.2,0.6-0.5c0,0,0,0,0,0c0-0.2-0.1-0.3-0.2-0.4
			c0.1-0.1,0.2-0.3,0.2-0.4c0-0.3-0.3-0.5-0.6-0.5l0,0c-0.2,0-0.3,0.1-0.5,0.2c-0.1-0.1-0.3-0.2-0.5-0.2c-0.3,0-0.5,0.2-0.6,0.5
			c0,0,0,0,0,0l0,0c0,0.2,0.1,0.3,0.2,0.4c-0.1,0.1-0.2,0.3-0.2,0.4c0,0.3,0.3,0.5,0.6,0.5c0,0,0,0,0,0c0.1,0,0.2,0,0.2,0V56
			c-0.3-0.3-0.7-0.4-1.2-0.4h-0.4c-0.1,0-0.1,0-0.1,0.1c0,0,0,0,0,0c0.2,0.7,0.9,1.2,1.6,1.2h0.5c0.7,0.1,1.4-0.4,1.6-1.2
			C521.3,55.7,521.2,55.7,521.2,55.7C521.2,55.6,521.1,55.6,521.2,55.7L521.2,55.7z M519.4,54.8c-0.2,0-0.3-0.1-0.4-0.3c0,0,0,0,0,0
			c0-0.2,0.1-0.4,0.3-0.4c0.2,0,0.4,0.1,0.4,0.3C519.8,54.6,519.7,54.8,519.4,54.8C519.4,54.8,519.4,54.8,519.4,54.8z M443.2,55.7
			h-0.3c-0.4,0-0.8,0.1-1.2,0.4v-0.6c0.1,0,0.2,0,0.2,0c0.3,0,0.6-0.2,0.6-0.5c0-0.2-0.1-0.3-0.2-0.4c0.1-0.1,0.2-0.3,0.2-0.4
			c0-0.3-0.3-0.5-0.5-0.5c0,0,0,0,0,0l0,0c-0.2,0-0.3,0.1-0.5,0.2c-0.1-0.1-0.3-0.2-0.5-0.2c-0.3,0-0.6,0.2-0.6,0.5c0,0,0,0,0,0l0,0
			c0,0.2,0.1,0.3,0.2,0.4c-0.1,0.1-0.2,0.3-0.2,0.4c0,0.3,0.3,0.5,0.6,0.5c0,0,0,0,0,0c0.1,0,0.2,0,0.2,0V56
			c-0.3-0.3-0.7-0.4-1.2-0.4h-0.3c-0.1,0-0.1,0-0.1,0.1c0,0,0,0,0,0c0.2,0.7,0.9,1.2,1.6,1.2h0.5c0.7,0.1,1.4-0.4,1.6-1.2
			C443.3,55.7,443.3,55.7,443.2,55.7C443.2,55.6,443.2,55.6,443.2,55.7L443.2,55.7z M441.4,54.8c-0.2,0-0.3-0.1-0.3-0.3
			c0-0.2,0.1-0.3,0.3-0.3c0,0,0,0,0,0c0.2,0,0.3,0.1,0.4,0.3C441.8,54.7,441.6,54.8,441.4,54.8C441.4,54.8,441.4,54.8,441.4,54.8
			L441.4,54.8z M527.6,55.7h-0.3c-0.4,0-0.8,0.1-1.2,0.4v-0.6c0.1,0,0.2,0,0.2,0c0.3,0,0.6-0.2,0.6-0.5c0-0.2-0.1-0.3-0.2-0.4
			c0.1-0.1,0.2-0.3,0.2-0.4c0-0.3-0.3-0.5-0.5-0.5c0,0,0,0,0,0l0,0c-0.2,0-0.3,0.1-0.5,0.2c-0.1-0.1-0.3-0.2-0.5-0.2
			c-0.3,0-0.6,0.2-0.6,0.5c0,0,0,0,0,0l0,0c0,0.2,0.1,0.3,0.2,0.4c-0.1,0.1-0.2,0.3-0.2,0.4c0,0.3,0.3,0.5,0.6,0.5c0,0,0,0,0,0
			c0.1,0,0.2,0,0.2,0V56c-0.3-0.3-0.7-0.4-1.2-0.4h-0.3c-0.1,0-0.1,0-0.1,0.1c0,0,0,0,0,0c0.2,0.7,0.9,1.2,1.6,1.2h0.4
			c0.7,0.1,1.4-0.4,1.6-1.2C527.7,55.7,527.7,55.7,527.6,55.7z M525.9,54.8c-0.2,0-0.3-0.1-0.3-0.3c0-0.2,0.1-0.3,0.3-0.3
			c0,0,0,0,0,0c0.2,0,0.3,0.1,0.4,0.3C526.3,54.7,526.1,54.8,525.9,54.8C525.9,54.8,525.9,54.8,525.9,54.8L525.9,54.8z M430.2,55.7
			h-0.3c-0.4,0-0.8,0.1-1.2,0.4v-0.6c0.1,0,0.2,0,0.2,0c0.3,0,0.6-0.2,0.6-0.5c0-0.2-0.1-0.3-0.2-0.4c0.1-0.1,0.2-0.3,0.2-0.4
			c0-0.3-0.3-0.5-0.6-0.5l0,0c-0.2,0.3-0.6,0.3-0.9,0c0,0,0,0,0,0c-0.3,0-0.6,0.2-0.6,0.5c0,0,0,0,0,0l0,0c0,0.2,0.1,0.3,0.2,0.4
			c-0.1,0.1-0.2,0.3-0.2,0.4c0,0.3,0.3,0.5,0.6,0.5c0,0,0,0,0,0c0.1,0,0.2,0,0.2,0V56c-0.3-0.3-0.7-0.4-1.2-0.4h-0.3
			c-0.1,0-0.1,0-0.1,0.1c0,0,0,0,0,0c0.2,0.7,0.9,1.2,1.6,1.2h0.5c0.7,0.1,1.4-0.4,1.6-1.2C430.3,55.7,430.3,55.7,430.2,55.7
			C430.2,55.6,430.2,55.6,430.2,55.7L430.2,55.7z M428.5,54.8c-0.2,0-0.3-0.1-0.3-0.3c0,0,0,0,0,0c0-0.2,0.2-0.3,0.3-0.3
			c0,0,0,0,0,0c0.2,0,0.3,0.1,0.4,0.3C428.8,54.7,428.6,54.8,428.5,54.8C428.4,54.8,428.4,54.8,428.5,54.8L428.5,54.8z M514.6,55.7
			h-0.3c-0.4,0-0.8,0.1-1.2,0.4v-0.6c0.1,0,0.2,0,0.2,0c0.3,0,0.6-0.2,0.6-0.5c0-0.2-0.1-0.3-0.2-0.4c0.1-0.1,0.2-0.3,0.2-0.4
			c0-0.3-0.3-0.5-0.6-0.5l0,0c-0.2,0.3-0.6,0.3-0.9,0c0,0,0,0,0,0c-0.3,0-0.6,0.2-0.6,0.5c0,0,0,0,0,0l0,0c0,0.2,0.1,0.3,0.2,0.4
			c-0.1,0.1-0.2,0.3-0.2,0.4c0,0.3,0.3,0.5,0.6,0.5c0.1,0,0.2,0,0.2,0V56c-0.3-0.3-0.7-0.4-1.2-0.4h-0.3c-0.1,0-0.1,0-0.1,0.1
			c0,0,0,0,0,0c0.2,0.7,0.9,1.2,1.6,1.2h0.5c0.7,0.1,1.4-0.4,1.6-1.2C514.7,55.7,514.7,55.7,514.6,55.7
			C514.6,55.7,514.6,55.7,514.6,55.7z M512.9,54.8c-0.2,0-0.3-0.1-0.3-0.3c0-0.2,0.1-0.3,0.3-0.3c0,0,0,0,0,0c0.2,0,0.3,0.1,0.4,0.3
			C513.2,54.7,513.1,54.8,512.9,54.8L512.9,54.8z M423.7,55.7h-0.3c-0.4,0-0.8,0.1-1.2,0.4v-0.6c0.1,0,0.2,0,0.2,0
			c0.3,0,0.6-0.2,0.6-0.5c0-0.2-0.1-0.3-0.2-0.4c0.1-0.1,0.2-0.3,0.2-0.4c0-0.3-0.3-0.5-0.6-0.5l0,0c-0.2,0-0.3,0.1-0.5,0.2
			c-0.1-0.1-0.3-0.2-0.5-0.2c-0.3,0-0.6,0.2-0.6,0.5c0,0,0,0,0,0l0,0c0,0.2,0.1,0.3,0.2,0.4c-0.1,0.1-0.2,0.3-0.2,0.4
			c0,0.3,0.3,0.5,0.6,0.5c0,0,0,0,0,0c0.1,0,0.2,0,0.2,0V56c-0.3-0.3-0.7-0.4-1.2-0.4h-0.3c-0.1,0-0.1,0-0.1,0.1c0,0,0,0,0,0
			c0.2,0.7,0.9,1.2,1.6,1.2h0.5c0.7,0.1,1.4-0.4,1.6-1.2C423.8,55.7,423.8,55.7,423.7,55.7C423.7,55.6,423.7,55.6,423.7,55.7
			L423.7,55.7z M421.9,54.8c-0.2,0-0.3-0.1-0.3-0.3c0,0,0,0,0,0c0-0.2,0.2-0.3,0.3-0.3c0.2,0,0.3,0.2,0.3,0.3
			C422.3,54.7,422.1,54.8,421.9,54.8L421.9,54.8z M410.4,56.7l-2.6-2.7h1c0.8,0,1.2-0.8,0.7-1.3l-2.8-2.9h1.3c0.6,0,1-0.6,0.6-1
			l-3.9-3.8c-0.3-0.3-0.8-0.3-1.1,0l-3.9,3.8c-0.4,0.4-0.1,1,0.6,1h1.3l-2.7,2.9c-0.5,0.5-0.1,1.3,0.7,1.3h1l-2.6,2.7
			c-0.3,0.4-0.3,0.9,0,1.2c0.2,0.2,0.5,0.3,0.7,0.2h11c0.5,0,0.9-0.3,0.9-0.8C410.7,57.1,410.6,56.9,410.4,56.7L410.4,56.7z
			 M583.5,56.7l-2.6-2.7h1c0.8,0,1.2-0.8,0.7-1.3l-2.8-2.9h1.3c0.6,0,1-0.6,0.6-1l-3.9-3.8c-0.3-0.3-0.8-0.3-1.1,0l-3.9,3.8
			c-0.4,0.4-0.1,1,0.6,1h1.3l-2.8,2.9c-0.5,0.5-0.1,1.3,0.7,1.3h1l-2.6,2.7c-0.3,0.3-0.3,0.9,0,1.2c0.2,0.2,0.4,0.3,0.7,0.2h11.1
			c0.5,0,0.9-0.3,0.9-0.8C583.8,57.1,583.7,56.9,583.5,56.7L583.5,56.7z M545.8,56.7l-2.6-2.7h1c0.8,0,1.2-0.8,0.7-1.3l-2.7-2.9h1.3
			c0.6,0,1-0.6,0.6-1l-3.9-3.8c-0.3-0.3-0.8-0.3-1.1,0l-3.9,3.8c-0.4,0.4-0.1,1,0.6,1h1.3l-2.8,2.9c-0.5,0.5-0.1,1.3,0.7,1.3h1
			l-2.6,2.7c-0.3,0.4-0.3,0.9,0.1,1.2c0.2,0.2,0.4,0.2,0.7,0.2h11c0.5,0,0.9-0.4,0.9-0.9C546,57.1,545.9,56.9,545.8,56.7L545.8,56.7
			z M367.3,56.7l-2.6-2.7h1c0.8,0,1.2-0.8,0.7-1.3l-2.8-2.9h1.3c0.6,0,1-0.6,0.6-1l-3.9-3.8c-0.3-0.3-0.8-0.3-1.1,0l-3.9,3.8
			c-0.4,0.4-0.1,1,0.6,1h1.3l-2.8,2.9c-0.5,0.5-0.1,1.3,0.7,1.3h1.1l-2.6,2.7c-0.3,0.4-0.3,0.9,0.1,1.2c0.2,0.2,0.4,0.2,0.7,0.2
			h11.1c0.5,0,0.9-0.3,0.9-0.8C367.6,57.1,367.5,56.9,367.3,56.7L367.3,56.7z M508.1,55.7h-0.3c-0.4,0-0.8,0.1-1.2,0.4v-0.6
			c0.1,0,0.2,0,0.2,0c0.3,0,0.6-0.2,0.6-0.5c0-0.2-0.1-0.3-0.2-0.4c0.1-0.1,0.2-0.3,0.2-0.4c0-0.3-0.3-0.5-0.6-0.5l0,0
			c-0.2,0-0.3,0.1-0.5,0.2c-0.1-0.1-0.3-0.2-0.5-0.2c-0.3,0-0.6,0.2-0.6,0.5c0,0,0,0,0,0l0,0c0,0.2,0.1,0.3,0.2,0.4
			c-0.1,0.1-0.2,0.3-0.2,0.4c0,0.3,0.3,0.5,0.6,0.5c0,0,0,0,0,0c0.1,0,0.2,0,0.2,0V56c-0.3-0.3-0.7-0.4-1.2-0.4h-0.3
			c-0.1,0-0.1,0-0.1,0.1c0,0,0,0,0,0c0.2,0.7,0.9,1.2,1.6,1.2h0.5c0.7,0.1,1.4-0.4,1.6-1.2C508.2,55.7,508.2,55.7,508.1,55.7
			L508.1,55.7z M506.4,54.8c-0.2,0-0.3-0.1-0.3-0.3c0-0.2,0.1-0.3,0.3-0.3c0,0,0,0,0,0c0.2,0,0.3,0.1,0.3,0.3c0,0,0,0,0,0
			C506.7,54.7,506.6,54.8,506.4,54.8L506.4,54.8z"/>
		<path class="st4" d="M399.3,9.8c0.1-0.2,0.1-0.3,0.1-0.5c-0.1-0.8-0.7-1.4-1.5-1.4c-0.3,0-0.6,0.1-0.9,0.3
			c-0.5-0.8-1.4-1.2-2.3-1.2c-1.4-0.1-2.5,1-2.6,2.4c0,0,0,0,0,0v0.1c-0.9,0.3-1.5,1.1-1.5,2c0.1,1.2,1.1,2.2,2.3,2.1c0,0,0,0,0,0h6
			c1.1,0,2-0.8,2.1-1.9C401,10.7,400.3,9.9,399.3,9.8L399.3,9.8z M346.1-3.1c0.1-0.2,0.1-0.3,0.1-0.5c0-0.8-0.7-1.4-1.5-1.4
			c-0.3,0-0.6,0.1-0.9,0.2c-0.5-0.8-1.3-1.2-2.2-1.2c-1.4-0.1-2.5,1-2.6,2.4v0.1c-0.9,0.3-1.5,1.1-1.5,2c0.1,1.2,1.1,2.2,2.3,2.1
			c0,0,0,0,0,0h6c1.1,0,2-0.8,2.1-1.9C347.8-2.2,347.1-2.9,346.1-3.1z M376.7,20.1l-0.5,0.9l-1.1,0.1c-0.1,0-0.2,0.1-0.2,0.2
			c0,0.1,0,0.1,0.1,0.1l0.8,0.7l-0.2,1c0,0.1,0.1,0.2,0.2,0.2c0,0,0.1,0,0.1,0l1-0.5l0.9,0.5c0.1,0.1,0.3,0,0.3-0.1c0,0,0-0.1,0-0.1
			l-0.2-1l0.8-0.7c0.1-0.1,0.1-0.2,0-0.3c0,0-0.1-0.1-0.1-0.1l-1.1-0.1l-0.5-0.9C377,20,376.9,20,376.7,20.1
			C376.7,20.1,376.7,20.1,376.7,20.1L376.7,20.1z M359.5,6.6L359,7.4L358,7.6c-0.1,0-0.2,0.1-0.2,0.2c0,0.1,0,0.1,0.1,0.1l0.8,0.7
			l-0.2,1c0,0.1,0.1,0.2,0.2,0.2c0,0,0.1,0,0.1,0l1-0.5l0.9,0.5c0.1,0.1,0.3,0,0.3-0.1c0,0,0-0.1,0-0.1l-0.2-1l0.8-0.7
			c0.1-0.1,0.1-0.2,0-0.3c0,0-0.1-0.1-0.1-0.1l-1.1-0.1l-0.5-0.9c-0.1-0.1-0.2-0.2-0.3-0.1C359.6,6.5,359.5,6.5,359.5,6.6z"/>
		<path class="st3" d="M377.8-7.7l-0.5,0.9l-1.1,0.1c-0.1,0-0.2,0.1-0.2,0.2c0,0,0,0.1,0.1,0.1l0.8,0.7l-0.2,1
			c0,0.1,0.1,0.2,0.2,0.2c0,0,0.1,0,0.1,0l1-0.5l0.9,0.5c0.1,0.1,0.3,0,0.3-0.1c0,0,0-0.1,0-0.1l-0.2-1l0.8-0.7
			c0.1-0.1,0.1-0.2,0-0.3c0,0-0.1-0.1-0.1-0.1l-1.1-0.1l-0.5-0.9C378.2-7.8,378-7.8,377.8-7.7C377.9-7.7,377.8-7.7,377.8-7.7z
			 M340.3,23.9l-0.5,0.9l-1.1,0.1c-0.1,0-0.2,0.1-0.2,0.2c0,0,0,0.1,0.1,0.1l0.8,0.7l-0.2,1c0,0.1,0.1,0.2,0.2,0.2c0,0,0.1,0,0.1,0
			l1-0.5l0.9,0.5c0.1,0.1,0.3,0,0.3-0.1c0,0,0-0.1,0-0.1l-0.2-1l0.8-0.7c0.1-0.1,0.1-0.2,0-0.3c0,0-0.1-0.1-0.1-0.1l-1.1-0.1
			l-0.5-0.9c-0.1-0.1-0.2-0.2-0.3-0.1C340.3,23.8,340.3,23.9,340.3,23.9L340.3,23.9z"/>
		<path class="st4" d="M548.7-3.4c0.1-0.2,0.1-0.3,0.1-0.5c-0.1-0.8-0.7-1.4-1.5-1.4c-0.3,0-0.6,0.1-0.9,0.3
			c-0.5-0.8-1.3-1.2-2.2-1.2c-1.4-0.1-2.5,1-2.6,2.4v0.1c-0.9,0.3-1.5,1.1-1.5,2c0.1,1.2,1.1,2.2,2.3,2.1c0,0,0,0,0,0h6
			c1.1,0,2-0.8,2-1.9C550.3-2.5,549.6-3.2,548.7-3.4z M592,16.6c0.1-0.2,0.1-0.3,0.1-0.5c-0.1-0.8-0.7-1.4-1.5-1.4
			c-0.3,0-0.6,0.1-0.9,0.3c-0.5-0.8-1.3-1.2-2.3-1.2c-1.4-0.1-2.5,1-2.6,2.4v0.1c-0.9,0.3-1.5,1.1-1.5,2c0.1,1.2,1.1,2.2,2.3,2.1
			c0,0,0,0,0,0h6c1.1,0,2-0.8,2.1-1.9C593.7,17.5,592.9,16.7,592,16.6z M550.1,25.9l-0.5,0.9l-1.1,0.1c-0.1,0-0.2,0.1-0.2,0.2
			c0,0.1,0,0.1,0.1,0.1l0.8,0.7l-0.2,1c0,0.1,0.1,0.2,0.2,0.2c0,0,0.1,0,0.1,0l1-0.5l0.9,0.5c0.1,0.1,0.3,0,0.3-0.1c0,0,0-0.1,0-0.1
			l-0.2-1l0.8-0.7c0.1-0.1,0.1-0.2,0-0.3c0,0-0.1-0.1-0.1-0.1l-1.1-0.1l-0.5-0.9C550.5,25.8,550.3,25.8,550.1,25.9
			C550.2,25.8,550.1,25.9,550.1,25.9L550.1,25.9z M566.8,21.3c-0.2,0.2-0.2,0.4,0,0.6c0,0,0,0,0,0c0.2,0.2,0.6,0.2,0.8,0
			c0.2-0.2,0.2-0.4,0-0.6c0,0,0,0,0,0C567.3,21.1,567,21.1,566.8,21.3L566.8,21.3z M569.4,19.1c0.1-0.1,0.1-0.2,0-0.2c0,0,0,0,0,0
			l-0.4-0.4c-0.1,0-0.1,0-0.2,0l-2.7,1.1c-0.6,0.2-1,0.7-1.3,1.2c-0.4,0.8-0.2,1.8,0.5,2.4c0.7,0.6,1.7,0.8,2.7,0.5
			c0.6-0.2,1.1-0.6,1.3-1.2l0.1-0.2h0c0.2,0,0.3,0,0.4-0.1l0.5-0.4c0.2-0.2,0.2-0.4,0-0.6c0,0,0,0,0,0c-0.1-0.1-0.2-0.1-0.3-0.1
			l0.5-0.9c0-0.1,0-0.1,0-0.2l-0.4-0.4c-0.1-0.1-0.2-0.1-0.2,0l-1.1,1l-0.5-0.5L569.4,19.1L569.4,19.1z M566.1,22.8
			c-0.1,0.1-0.2,0.1-0.2,0l0,0c-0.1-0.1-0.1-0.2,0-0.2c0,0,0,0,0,0c0.1-0.1,0.2-0.1,0.2,0C566.2,22.6,566.2,22.7,566.1,22.8
			L566.1,22.8z M567.1,23.2c-0.1,0.1-0.2,0.1-0.2,0c-0.1-0.1-0.1-0.2,0-0.2c0,0,0,0,0,0c0.1-0.1,0.2-0.1,0.2,0
			C567.2,23,567.2,23.1,567.1,23.2L567.1,23.2z M565.6,21.9c-0.1,0.1-0.2,0.1-0.2,0c-0.1-0.1-0.1-0.2,0-0.2c0,0,0,0,0,0
			c0.1-0.1,0.2-0.1,0.2,0C565.7,21.7,565.7,21.8,565.6,21.9L565.6,21.9z M567.7,22.2c-0.3,0.3-0.9,0.3-1.2,0c-0.3-0.3-0.3-0.8,0-1.1
			c0,0,0,0,0,0c0.4-0.3,0.9-0.3,1.2,0C568,21.4,568,21.9,567.7,22.2C567.7,22.2,567.7,22.2,567.7,22.2L567.7,22.2z M581,32.4
			l-0.5,0.9l-1.1,0.1c-0.1,0-0.2,0.1-0.2,0.2c0,0.1,0,0.1,0.1,0.2l0.8,0.7l-0.2,1c0,0.1,0.1,0.2,0.2,0.2c0,0,0.1,0,0.1,0l1-0.5
			l0.9,0.5c0.1,0.1,0.3,0,0.3-0.1c0,0,0-0.1,0-0.1l-0.2-0.9l0.8-0.7c0.1-0.1,0.1-0.2,0-0.3c0,0-0.1-0.1-0.2-0.1l-1.1-0.1l-0.5-0.9
			C581.3,32.3,581.1,32.3,581,32.4C581,32.4,581,32.4,581,32.4L581,32.4z M597.9-5.1l-0.5,0.9l-1.1,0.1c-0.1,0-0.2,0.1-0.2,0.2
			c0,0.1,0,0.1,0.1,0.1l0.8,0.7l-0.2,1c0,0.1,0.1,0.2,0.2,0.3c0,0,0.1,0,0.1,0l1-0.5l0.9,0.5c0.1,0.1,0.3,0,0.3-0.1c0,0,0-0.1,0-0.1
			l-0.2-0.9l0.8-0.7c0.1-0.1,0.1-0.2,0-0.3c0,0-0.1-0.1-0.1-0.1l-1.1-0.1l-0.5-0.9C598.2-5.2,598.1-5.3,597.9-5.1
			C597.9-5.2,597.9-5.1,597.9-5.1L597.9-5.1z"/>
		<path class="st3" d="M566.7,7.1L566.2,8l-1.1,0.1c-0.1,0-0.2,0.1-0.2,0.2c0,0.1,0,0.1,0.1,0.1l0.8,0.7l-0.2,1
			c0,0.1,0.1,0.2,0.2,0.3c0,0,0.1,0,0.1,0l1-0.5l0.9,0.5c0.1,0.1,0.3,0,0.3-0.1c0,0,0-0.1,0-0.1l-0.2-1l0.8-0.7
			c0.1-0.1,0.1-0.2,0-0.3c0,0-0.1-0.1-0.1-0.1L567.6,8l-0.5-0.9c-0.1-0.1-0.2-0.2-0.3-0.1C566.8,7,566.7,7,566.7,7.1L566.7,7.1z
			 M612.1,16.7l-0.5,0.9l-1.1,0.1c-0.1,0-0.2,0.1-0.2,0.2c0,0.1,0,0.1,0.1,0.1l0.8,0.7l-0.2,1c0,0.1,0.1,0.2,0.2,0.2
			c0,0,0.1,0,0.1,0l1-0.5l0.9,0.5c0.1,0.1,0.3,0,0.3-0.1c0,0,0-0.1,0-0.1l-0.2-1l0.8-0.7c0.1-0.1,0.1-0.2,0-0.3c0,0-0.1-0.1-0.1-0.1
			l-1.1-0.1l-0.5-0.9C612.5,16.5,612.3,16.5,612.1,16.7C612.2,16.6,612.2,16.6,612.1,16.7L612.1,16.7z"/>
	</g>
</g>
<g>
	<defs>
		<rect id="SVGID_9_" x="632.1" y="-31.4" width="309" height="88.3"/>
	</defs>
	<clipPath id="SVGID_6_">
		<use xlink:href="#SVGID_9_"  style="overflow:visible;"/>
	</clipPath>
	<g class="st6">
		<path class="st1" d="M751.2,57l-16.7-23.6c-0.6-0.8-1.8-1-2.6-0.4c-0.2,0.1-0.3,0.3-0.4,0.4L714.8,57c-0.2,0.3-0.3,0.6-0.3,0.9
			c0,0.3,0.1,0.5,0.2,0.8c0.4,0.5,1,0.8,1.6,0.8h33.4c0.6,0,1.3-0.3,1.6-0.8c0.1-0.2,0.2-0.5,0.2-0.8
			C751.6,57.6,751.4,57.2,751.2,57z M733.1,37.5l4.9,6.9h-4.9l-3.7,3.4l-2.3-2L733.1,37.5z M935.8,57l-16.7-23.6
			c-0.6-0.8-1.8-1-2.6-0.4c-0.2,0.1-0.3,0.3-0.4,0.4L899.3,57c-0.2,0.3-0.3,0.6-0.3,0.9c0,0.3,0.1,0.5,0.2,0.8
			c0.4,0.5,1,0.8,1.6,0.8h33.4c0.6,0,1.3-0.3,1.6-0.8c0.1-0.2,0.2-0.5,0.2-0.8C936.1,57.6,936,57.2,935.8,57z M917.6,37.5l4.9,6.9
			h-4.9l-3.7,3.4l-2.3-2L917.6,37.5z M682.5,57.4l-11.2-15.6c-0.7-0.8-1.8-0.9-2.7-0.3c-0.1,0.1-0.2,0.2-0.3,0.3l-1.9,2.7l4,5.5
			c0.1,0.2,0.1,0.4-0.1,0.5c0,0,0,0,0,0l-0.8,0.5c-0.2,0.1-0.5,0-0.6-0.2l-3.5-4.9l-4.1-5.8c-0.7-0.9-2-1-2.9-0.3
			c-0.1,0.1-0.2,0.2-0.3,0.3l-12,17.1c-0.7,1,0.1,2.3,1.5,2.3h33.6C682.4,59.6,683.2,58.4,682.5,57.4L682.5,57.4z M843.8,56.3
			l-2.9-3.1h1.2c0.5,0.1,0.9-0.3,1-0.8c0-0.2,0-0.5-0.2-0.7l-3.1-3.3h1.4c0.7,0,1.1-0.7,0.7-1.1l-4.4-4.3c-0.4-0.3-0.9-0.3-1.3,0
			l-4.4,4.3c-0.4,0.4-0.1,1.1,0.7,1.1h1.5l-3.1,3.3c-0.6,0.6-0.1,1.4,0.8,1.4h1.2l-2.9,3.1c-0.4,0.4-0.3,1,0.1,1.4
			c0.2,0.2,0.5,0.3,0.8,0.3H843c0.5,0.1,1-0.3,1.1-0.9C844.1,56.8,844,56.5,843.8,56.3L843.8,56.3z"/>
		<path class="st1" d="M849.8,56.3l-2.9-3.1h1.2c0.5,0.1,0.9-0.3,1-0.8c0-0.2,0-0.5-0.2-0.7l-3.1-3.3h1.4c0.7,0,1.1-0.7,0.7-1.1
			l-4.4-4.3c-0.4-0.3-0.9-0.3-1.3,0l-4.4,4.3c-0.4,0.4-0.1,1.1,0.7,1.1h1.4l-3.1,3.3c-0.6,0.6-0.1,1.4,0.8,1.4h1.2l-2.9,3.1
			c-0.4,0.4-0.3,1,0.1,1.4c0.2,0.2,0.5,0.3,0.8,0.3H849c0.5,0,1-0.4,1.1-0.9C850.1,56.8,850,56.5,849.8,56.3L849.8,56.3z
			 M867.8,56.3l-2.9-3.1h1.2c0.5,0.1,0.9-0.3,1-0.8c0-0.2,0-0.5-0.2-0.7l-3.1-3.3h1.4c0.7,0,1.1-0.7,0.7-1.1l-4.4-4.3
			c-0.4-0.3-0.9-0.3-1.3,0l-4.4,4.3c-0.4,0.4-0.1,1.1,0.7,1.1h1.5l-3.1,3.3c-0.6,0.6-0.1,1.4,0.8,1.4h1.2l-2.9,3.1
			c-0.4,0.4-0.3,1,0.1,1.4c0.2,0.2,0.5,0.3,0.8,0.3H867c0.5,0,1-0.4,1.1-0.9C868.1,56.8,868,56.5,867.8,56.3L867.8,56.3z
			 M894.5,56.3l-2.9-3.1h1.1c0.5,0.1,0.9-0.3,1-0.8c0-0.2,0-0.5-0.2-0.7l-3.1-3.3h1.4c0.7,0,1.1-0.7,0.7-1.1l-4.4-4.3
			c-0.4-0.3-0.9-0.3-1.3,0l-4.4,4.3c-0.4,0.4-0.1,1.1,0.7,1.1h1.5l-3.1,3.3c-0.6,0.6-0.1,1.4,0.8,1.4h1.2l-2.9,3.1
			c-0.4,0.4-0.3,1,0.1,1.4c0.2,0.2,0.5,0.3,0.8,0.3h12.4c0.5,0,1-0.4,1.1-0.9C894.9,56.8,894.8,56.5,894.5,56.3L894.5,56.3z
			 M720.9,56.3l-2.9-3.1h1.2c0.9,0,1.3-0.9,0.8-1.4l-3.1-3.3h1.4c0.7,0,1.1-0.7,0.7-1.1l-4.4-4.3c-0.4-0.3-0.9-0.3-1.3,0l-4.5,4.3
			c-0.4,0.4-0.1,1.1,0.7,1.1h1.5l-3.1,3.3c-0.6,0.6-0.1,1.4,0.8,1.4h1.2l-2.9,3.1c-0.4,0.4-0.3,1,0.1,1.4c0.2,0.2,0.5,0.3,0.8,0.3
			H720c0.5,0,1-0.4,1.1-0.9C721.1,56.8,721,56.5,720.9,56.3L720.9,56.3z M702.9,56.3l-2.9-3.1h1.2c0.5,0.1,0.9-0.3,1-0.8
			c0-0.2,0-0.5-0.2-0.7l-3.1-3.3h1.4c0.7,0,1.1-0.7,0.7-1.1l-4.4-4.3c-0.4-0.3-0.9-0.3-1.3,0l-4.4,4.3c-0.4,0.4-0.1,1.1,0.7,1.1h1.5
			l-3.1,3.3c-0.6,0.6-0.1,1.4,0.8,1.4h1.2l-2.9,3.1c-0.4,0.4-0.3,1,0.1,1.4c0.2,0.2,0.5,0.3,0.8,0.3h12.4c0.5,0,1-0.4,1-1
			C703.1,56.7,703,56.5,702.9,56.3L702.9,56.3z"/>
		<path class="st1" d="M697.3,56.3l-2.9-3.1h1.2c0.9,0,1.3-0.9,0.8-1.4l-3.1-3.3h1.4c0.7,0,1.1-0.7,0.7-1.1l-4.4-4.3
			c-0.4-0.3-0.9-0.3-1.3,0l-4.4,4.3c-0.4,0.4-0.1,1.1,0.7,1.1h1.5l-3.1,3.3c-0.6,0.6-0.1,1.4,0.8,1.4h1.2l-2.9,3.1
			c-0.4,0.4-0.3,1,0.1,1.4c0.2,0.2,0.5,0.3,0.8,0.3h12.3c0.5,0.1,1-0.3,1.1-0.9C697.6,56.8,697.5,56.5,697.3,56.3z M653.2,56.3
			l-2.9-3.1h1.2c0.5,0.1,0.9-0.3,1-0.8c0-0.2,0-0.5-0.2-0.7l-3.1-3.3h1.4c0.7,0,1.1-0.7,0.7-1.1l-4.4-4.3c-0.4-0.3-0.9-0.3-1.3,0
			l-4.4,4.3c-0.4,0.4-0.1,1.1,0.7,1.1h1.5l-3.1,3.3c-0.6,0.6-0.1,1.4,0.8,1.4h1.1l-2.9,3.1c-0.4,0.4-0.3,1,0.1,1.4
			c0.2,0.2,0.5,0.3,0.8,0.3h12.4c0.5,0,1-0.4,1.1-0.9C653.4,56.8,653.3,56.5,653.2,56.3L653.2,56.3z"/>
		<path class="st2" d="M805.2,48.3h6.5v5.2h-6.5V48.3z"/>
		<path class="st1" d="M816.6,50.4l-1.7-1.3v-3.6c0-0.2-0.2-0.4-0.5-0.4h-1.9c-0.2,0-0.4,0.2-0.5,0.4v1.4l-3-2.4
			c-0.4-0.4-1.1-0.4-1.5,0l-7.4,5.9c-0.1,0.1-0.2,0.2-0.2,0.3c0,0.1,0.1,0.2,0.1,0.3l0.6,0.6c0.1,0.1,0.2,0.1,0.3,0.1
			c0.1,0,0.2,0,0.3-0.1l0.5-0.4v5.5c0,0.5,0.4,0.9,0.9,0.8c0,0,0,0,0,0H814c0.5,0,0.9-0.4,0.9-0.8v-5.5l0.4,0.4
			c0.1,0.1,0.2,0.1,0.3,0.1c0.1,0,0.2,0,0.3-0.1l0.6-0.6c0.1-0.1,0.1-0.2,0.1-0.3C816.8,50.6,816.7,50.5,816.6,50.4z M810.3,52
			c0,0.3-0.3,0.6-0.6,0.6h-2.5c-0.3,0-0.6-0.2-0.6-0.5c0,0,0,0,0,0v-2.2c0-0.3,0.3-0.6,0.6-0.6h2.5c0.3,0,0.6,0.3,0.6,0.6V52z"/>
		<path class="st3" d="M780.3,56.4c0,0.2,0.1,0.5,0.3,0.5c0,0,0,0,0,0h0.1c0.2,0,0.4-0.1,0.5-0.3l0.4-1.3l-0.8-0.7L780.3,56.4z
			 M780.5,53.8l0.6-2.1c0-0.1-0.1-0.2-0.2-0.2c-0.6-0.2-1.2,0.2-1.4,0.8l-0.4,1.3c0,0.1,0.1,0.2,0.2,0.3c0,0,0,0,0,0l0.9,0.2
			C780.3,54,780.5,53.9,780.5,53.8z M784.5,52.3h-0.2c-0.1,0-0.2,0.1-0.2,0.2v0.2h-0.5l-0.7-0.6c-0.2-0.2-0.4-0.2-0.6-0.2
			c-0.4,0-0.7,0.2-0.8,0.6l-0.4,1.4V54c0,0.1,0.1,0.2,0.1,0.3l1.3,1.1v1.1c0,0.2,0.2,0.4,0.5,0.4c0,0,0,0,0,0c0.2,0,0.4-0.2,0.5-0.4
			v-1.1c0-0.2-0.1-0.4-0.3-0.6l-0.7-0.6l0,0l0.3-1l0.3,0.3c0.1,0.1,0.2,0.1,0.3,0.1h0.7v3.2c0,0.1,0.1,0.2,0.2,0.2h0.2
			c0.1,0,0.2-0.1,0.2-0.2v-4.2C784.7,52.4,784.6,52.3,784.5,52.3C784.5,52.3,784.5,52.3,784.5,52.3L784.5,52.3z M782.6,51.5
			c0.4,0,0.7-0.3,0.7-0.6c0-0.4-0.3-0.6-0.7-0.6c-0.4,0-0.7,0.3-0.7,0.6C781.9,51.2,782.2,51.5,782.6,51.5
			C782.6,51.4,782.6,51.4,782.6,51.5L782.6,51.5z M695.9,54.9c-0.6,0.3-1.4,0.1-1.7-0.5c0,0,0-0.1-0.1-0.1c-0.9,0.2-1.5,0.9-1.5,1.8
			v0.3c-0.2,0-0.3-0.1-0.3-0.3l0,0v-2c-0.1-0.4-0.5-0.6-0.9-0.5c-0.3,0.1-0.5,0.3-0.5,0.5l0,0v0.4c0,0.1,0.1,0.3,0.3,0.3
			c0,0,0,0,0,0l0,0c0.2,0,0.3-0.1,0.3-0.3c0,0,0,0,0,0v-0.4c0-0.1,0.1-0.1,0.2-0.1c0.1,0,0.1,0.1,0.1,0.1v2c0,0.5,0.4,0.8,0.9,0.8
			h2.2c0.1,0,0.1-0.1,0.1-0.1v-0.1c0-0.2-0.1-0.3-0.3-0.3h-0.6l1.4-0.9l0.3,0.9v0.1v0.3c0,0.1,0.1,0.1,0.1,0.1c0,0,0,0,0,0h0.3
			c0.1,0,0.1-0.1,0.2-0.1v-0.3c0-0.1,0-0.2,0-0.3L695.9,54.9L695.9,54.9z M696.3,53.2h-0.2c-0.1-0.3-0.5-0.5-0.8-0.5
			c-0.4,0-0.7,0.2-0.8,0.5h-0.2c-0.2,0-0.4,0.2-0.4,0.4c0,0.2,0.2,0.4,0.4,0.4c0,0,0,0,0,0h0.1c0,0.5,0.5,0.9,1,0.8
			c0.4,0,0.8-0.4,0.8-0.8h0.1c0.2,0,0.4-0.2,0.4-0.4C696.7,53.3,696.5,53.2,696.3,53.2C696.3,53.2,696.3,53.2,696.3,53.2z
			 M694.9,53.6c-0.1,0-0.1,0-0.2-0.1c0-0.1,0-0.1,0.1-0.2c0,0,0,0,0.1,0c0.1,0,0.1,0,0.2,0.1C695.1,53.5,695,53.6,694.9,53.6
			C695,53.6,694.9,53.6,694.9,53.6z M695.7,53.6c-0.1,0-0.1-0.1-0.1-0.1l0,0c0-0.1,0.1-0.1,0.1-0.1c0,0,0,0,0,0c0.1,0,0.1,0,0.2,0.1
			C695.9,53.5,695.8,53.6,695.7,53.6C695.7,53.6,695.7,53.6,695.7,53.6L695.7,53.6z M752.7,55.7h-0.3c-0.4,0-0.8,0.1-1.2,0.4v-0.6
			c0.1,0,0.2,0,0.2,0c0.3,0,0.6-0.2,0.6-0.5c0,0,0,0,0,0c0-0.2-0.1-0.3-0.2-0.4c0.1-0.1,0.2-0.3,0.2-0.4c0-0.3-0.3-0.5-0.6-0.5l0,0
			c-0.2,0-0.3,0.1-0.5,0.2c-0.1-0.1-0.3-0.2-0.5-0.2c-0.3,0-0.5,0.2-0.6,0.5c0,0,0,0,0,0l0,0c0,0.2,0.1,0.3,0.2,0.4
			c-0.1,0.1-0.2,0.3-0.2,0.4c0,0.3,0.3,0.5,0.6,0.5c0,0,0,0,0,0c0.1,0,0.2,0,0.2,0V56c-0.3-0.3-0.7-0.4-1.2-0.4h-0.3
			c-0.1,0-0.1,0-0.1,0.1c0,0,0,0,0,0c0.2,0.7,0.9,1.2,1.6,1.2h0.5c0.7,0.1,1.4-0.4,1.6-1.2C752.9,55.7,752.8,55.7,752.7,55.7
			C752.7,55.6,752.7,55.6,752.7,55.7L752.7,55.7z M751,54.8c-0.2,0-0.3-0.1-0.4-0.3c0,0,0,0,0,0c0-0.2,0.1-0.4,0.3-0.4
			c0.2,0,0.4,0.1,0.4,0.3C751.4,54.6,751.2,54.8,751,54.8C751,54.8,751,54.8,751,54.8z M837.2,55.7h-0.3c-0.4,0-0.8,0.1-1.2,0.4
			v-0.6c0.1,0,0.2,0,0.2,0c0.3,0,0.6-0.2,0.6-0.5c0,0,0,0,0,0c0-0.2-0.1-0.3-0.2-0.4c0.1-0.1,0.2-0.3,0.2-0.4c0-0.3-0.3-0.5-0.6-0.5
			l0,0c-0.2,0-0.3,0.1-0.5,0.2c-0.1-0.1-0.3-0.2-0.5-0.2c-0.3,0-0.5,0.2-0.6,0.5c0,0,0,0,0,0l0,0c0,0.2,0.1,0.3,0.2,0.4
			c-0.1,0.1-0.2,0.3-0.2,0.4c0,0.3,0.3,0.5,0.6,0.5c0,0,0,0,0,0c0.1,0,0.2,0,0.2,0V56c-0.3-0.3-0.7-0.4-1.2-0.4h-0.4
			c-0.1,0-0.1,0-0.1,0.1c0,0,0,0,0,0c0.2,0.7,0.9,1.2,1.6,1.2h0.5c0.7,0.1,1.4-0.4,1.6-1.2C837.3,55.7,837.3,55.7,837.2,55.7
			C837.2,55.6,837.2,55.6,837.2,55.7L837.2,55.7z M835.5,54.8c-0.2,0-0.3-0.1-0.4-0.3c0,0,0,0,0,0c0-0.2,0.1-0.4,0.3-0.4
			c0.2,0,0.4,0.1,0.4,0.3C835.8,54.6,835.7,54.8,835.5,54.8C835.5,54.8,835.5,54.8,835.5,54.8z M759.2,55.7h-0.3
			c-0.4,0-0.8,0.1-1.2,0.4v-0.6c0.1,0,0.2,0,0.2,0c0.3,0,0.6-0.2,0.6-0.5c0-0.2-0.1-0.3-0.2-0.4c0.1-0.1,0.2-0.3,0.2-0.4
			c0-0.3-0.3-0.5-0.5-0.5c0,0,0,0,0,0l0,0c-0.2,0-0.3,0.1-0.5,0.2c-0.1-0.1-0.3-0.2-0.5-0.2c-0.3,0-0.6,0.2-0.6,0.5c0,0,0,0,0,0l0,0
			c0,0.2,0.1,0.3,0.2,0.4c-0.1,0.1-0.2,0.3-0.2,0.4c0,0.3,0.3,0.5,0.6,0.5c0,0,0,0,0,0c0.1,0,0.2,0,0.2,0V56
			c-0.3-0.3-0.7-0.4-1.2-0.4h-0.3c-0.1,0-0.1,0-0.1,0.1c0,0,0,0,0,0c0.2,0.7,0.9,1.2,1.6,1.2h0.5c0.7,0.1,1.4-0.4,1.6-1.2
			C759.3,55.7,759.3,55.7,759.2,55.7C759.2,55.6,759.2,55.6,759.2,55.7L759.2,55.7z M757.5,54.8c-0.2,0-0.3-0.1-0.3-0.3
			c0-0.2,0.1-0.3,0.3-0.3c0,0,0,0,0,0c0.2,0,0.3,0.1,0.4,0.3C757.8,54.7,757.7,54.8,757.5,54.8C757.5,54.8,757.5,54.8,757.5,54.8
			L757.5,54.8z M843.7,55.7h-0.3c-0.4,0-0.8,0.1-1.2,0.4v-0.6c0.1,0,0.2,0,0.2,0c0.3,0,0.6-0.2,0.6-0.5c0-0.2-0.1-0.3-0.2-0.4
			c0.1-0.1,0.2-0.3,0.2-0.4c0-0.3-0.3-0.5-0.5-0.5c0,0,0,0,0,0l0,0c-0.2,0-0.3,0.1-0.5,0.2c-0.1-0.1-0.3-0.2-0.5-0.2
			c-0.3,0-0.6,0.2-0.6,0.5c0,0,0,0,0,0l0,0c0,0.2,0.1,0.3,0.2,0.4c-0.1,0.1-0.2,0.3-0.2,0.4c0,0.3,0.3,0.5,0.6,0.5c0,0,0,0,0,0
			c0.1,0,0.2,0,0.2,0V56c-0.3-0.3-0.7-0.4-1.2-0.4h-0.3c-0.1,0-0.1,0-0.1,0.1c0,0,0,0,0,0c0.2,0.7,0.9,1.2,1.6,1.2h0.4
			c0.7,0.1,1.4-0.4,1.6-1.2C843.8,55.7,843.7,55.7,843.7,55.7z M842,54.8c-0.2,0-0.3-0.1-0.3-0.3c0-0.2,0.1-0.3,0.3-0.3c0,0,0,0,0,0
			c0.2,0,0.3,0.1,0.4,0.3C842.3,54.7,842.1,54.8,842,54.8C841.9,54.8,841.9,54.8,842,54.8L842,54.8z M746.2,55.7h-0.3
			c-0.4,0-0.8,0.1-1.2,0.4v-0.6c0.1,0,0.2,0,0.2,0c0.3,0,0.6-0.2,0.6-0.5c0-0.2-0.1-0.3-0.2-0.4c0.1-0.1,0.2-0.3,0.2-0.4
			c0-0.3-0.3-0.5-0.6-0.5l0,0c-0.2,0.3-0.6,0.3-0.9,0c0,0,0,0,0,0c-0.3,0-0.6,0.2-0.6,0.5c0,0,0,0,0,0l0,0c0,0.2,0.1,0.3,0.2,0.4
			c-0.1,0.1-0.2,0.3-0.2,0.4c0,0.3,0.3,0.5,0.6,0.5c0,0,0,0,0,0c0.1,0,0.2,0,0.2,0V56c-0.3-0.3-0.7-0.4-1.2-0.4h-0.3
			c-0.1,0-0.1,0-0.1,0.1c0,0,0,0,0,0c0.2,0.7,0.9,1.2,1.6,1.2h0.5c0.7,0.1,1.4-0.4,1.6-1.2C746.4,55.7,746.3,55.7,746.2,55.7
			C746.2,55.6,746.2,55.6,746.2,55.7L746.2,55.7z M744.5,54.8c-0.2,0-0.3-0.1-0.3-0.3c0,0,0,0,0,0c0-0.2,0.2-0.3,0.3-0.3
			c0,0,0,0,0,0c0.2,0,0.3,0.1,0.4,0.3C744.8,54.7,744.7,54.8,744.5,54.8C744.5,54.8,744.5,54.8,744.5,54.8L744.5,54.8z M830.6,55.7
			h-0.3c-0.4,0-0.8,0.1-1.2,0.4v-0.6c0.1,0,0.2,0,0.2,0c0.3,0,0.6-0.2,0.6-0.5c0-0.2-0.1-0.3-0.2-0.4c0.1-0.1,0.2-0.3,0.2-0.4
			c0-0.3-0.3-0.5-0.6-0.5l0,0c-0.2,0.3-0.6,0.3-0.9,0c0,0,0,0,0,0c-0.3,0-0.6,0.2-0.6,0.5c0,0,0,0,0,0l0,0c0,0.2,0.1,0.3,0.2,0.4
			c-0.1,0.1-0.2,0.3-0.2,0.4c0,0.3,0.3,0.5,0.6,0.5c0.1,0,0.2,0,0.2,0V56c-0.3-0.3-0.7-0.4-1.2-0.4h-0.3c-0.1,0-0.1,0-0.1,0.1
			c0,0,0,0,0,0c0.2,0.7,0.9,1.2,1.6,1.2h0.5c0.7,0.1,1.4-0.4,1.6-1.2C830.8,55.7,830.7,55.7,830.6,55.7
			C830.7,55.7,830.7,55.7,830.6,55.7z M828.9,54.8c-0.2,0-0.3-0.1-0.3-0.3c0-0.2,0.1-0.3,0.3-0.3c0,0,0,0,0,0c0.2,0,0.3,0.1,0.4,0.3
			C829.3,54.7,829.1,54.8,828.9,54.8L828.9,54.8z M739.7,55.7h-0.3c-0.4,0-0.8,0.1-1.2,0.4v-0.6c0.1,0,0.2,0,0.2,0
			c0.3,0,0.6-0.2,0.6-0.5c0-0.2-0.1-0.3-0.2-0.4c0.1-0.1,0.2-0.3,0.2-0.4c0-0.3-0.3-0.5-0.6-0.5l0,0c-0.2,0-0.3,0.1-0.5,0.2
			c-0.1-0.1-0.3-0.2-0.5-0.2c-0.3,0-0.6,0.2-0.6,0.5c0,0,0,0,0,0l0,0c0,0.2,0.1,0.3,0.2,0.4c-0.1,0.1-0.2,0.3-0.2,0.4
			c0,0.3,0.3,0.5,0.6,0.5c0,0,0,0,0,0c0.1,0,0.2,0,0.2,0V56c-0.3-0.3-0.7-0.4-1.2-0.4h-0.3c-0.1,0-0.1,0-0.1,0.1c0,0,0,0,0,0
			c0.2,0.7,0.9,1.2,1.6,1.2h0.5c0.7,0.1,1.4-0.4,1.6-1.2C739.9,55.7,739.8,55.7,739.7,55.7C739.8,55.6,739.7,55.6,739.7,55.7
			L739.7,55.7z M738,54.8c-0.2,0-0.3-0.1-0.3-0.3c0,0,0,0,0,0c0-0.2,0.2-0.3,0.3-0.3c0.2,0,0.3,0.2,0.3,0.3
			C738.3,54.7,738.2,54.8,738,54.8L738,54.8z M726.5,56.7l-2.6-2.7h1c0.8,0,1.2-0.8,0.7-1.3l-2.8-2.9h1.3c0.6,0,1-0.6,0.6-1
			l-3.9-3.8c-0.3-0.3-0.8-0.3-1.1,0l-3.9,3.8c-0.4,0.4-0.1,1,0.6,1h1.3l-2.7,2.9c-0.5,0.5-0.1,1.3,0.7,1.3h1l-2.6,2.7
			c-0.3,0.4-0.3,0.9,0,1.2c0.2,0.2,0.5,0.3,0.7,0.2h11c0.5,0,0.9-0.3,0.9-0.8C726.7,57.1,726.6,56.9,726.5,56.7L726.5,56.7z
			 M899.6,56.7L897,54h1c0.8,0,1.2-0.8,0.7-1.3l-2.8-2.9h1.3c0.6,0,1-0.6,0.6-1l-3.9-3.8c-0.3-0.3-0.8-0.3-1.1,0l-3.9,3.8
			c-0.4,0.4-0.1,1,0.6,1h1.3l-2.8,2.9c-0.5,0.5-0.1,1.3,0.7,1.3h1l-2.6,2.7c-0.3,0.3-0.3,0.9,0,1.2c0.2,0.2,0.4,0.3,0.7,0.2h11.1
			c0.5,0,0.9-0.3,0.9-0.8C899.8,57.1,899.8,56.9,899.6,56.7L899.6,56.7z M861.8,56.7l-2.6-2.7h1c0.8,0,1.2-0.8,0.7-1.3l-2.7-2.9h1.3
			c0.6,0,1-0.6,0.6-1l-3.9-3.8c-0.3-0.3-0.8-0.3-1.1,0l-3.9,3.8c-0.4,0.4-0.1,1,0.6,1h1.3l-2.8,2.9c-0.5,0.5-0.1,1.3,0.7,1.3h1
			l-2.6,2.7c-0.3,0.4-0.3,0.9,0.1,1.2c0.2,0.2,0.4,0.2,0.7,0.2h11c0.5,0,0.9-0.4,0.9-0.9C862.1,57.1,862,56.9,861.8,56.7L861.8,56.7
			z M683.4,56.7l-2.6-2.7h1c0.8,0,1.2-0.8,0.7-1.3l-2.8-2.9h1.3c0.6,0,1-0.6,0.6-1l-3.9-3.8c-0.3-0.3-0.8-0.3-1.1,0l-3.9,3.8
			c-0.4,0.4-0.1,1,0.6,1h1.3l-2.8,2.9c-0.5,0.5-0.1,1.3,0.7,1.3h1.1l-2.6,2.7c-0.3,0.4-0.3,0.9,0.1,1.2c0.2,0.2,0.4,0.2,0.7,0.2
			h11.1c0.5,0,0.9-0.3,0.9-0.8C683.6,57.1,683.5,56.9,683.4,56.7L683.4,56.7z M824.2,55.7h-0.3c-0.4,0-0.8,0.1-1.2,0.4v-0.6
			c0.1,0,0.2,0,0.2,0c0.3,0,0.6-0.2,0.6-0.5c0-0.2-0.1-0.3-0.2-0.4c0.1-0.1,0.2-0.3,0.2-0.4c0-0.3-0.3-0.5-0.6-0.5l0,0
			c-0.2,0-0.3,0.1-0.5,0.2c-0.1-0.1-0.3-0.2-0.5-0.2c-0.3,0-0.6,0.2-0.6,0.5c0,0,0,0,0,0l0,0c0,0.2,0.1,0.3,0.2,0.4
			c-0.1,0.1-0.2,0.3-0.2,0.4c0,0.3,0.3,0.5,0.6,0.5c0,0,0,0,0,0c0.1,0,0.2,0,0.2,0V56c-0.3-0.3-0.7-0.4-1.2-0.4h-0.3
			c-0.1,0-0.1,0-0.1,0.1c0,0,0,0,0,0c0.2,0.7,0.9,1.2,1.6,1.2h0.5c0.7,0.1,1.4-0.4,1.6-1.2C824.3,55.7,824.2,55.7,824.2,55.7
			L824.2,55.7z M822.4,54.8c-0.2,0-0.3-0.1-0.3-0.3c0-0.2,0.1-0.3,0.3-0.3c0,0,0,0,0,0c0.2,0,0.3,0.1,0.3,0.3c0,0,0,0,0,0
			C822.8,54.7,822.6,54.8,822.4,54.8L822.4,54.8z"/>
		<path class="st4" d="M715.3,9.8c0.1-0.2,0.1-0.3,0.1-0.5c-0.1-0.8-0.7-1.4-1.5-1.4c-0.3,0-0.6,0.1-0.9,0.3
			c-0.5-0.8-1.4-1.2-2.3-1.2c-1.4-0.1-2.5,1-2.6,2.4c0,0,0,0,0,0v0.1c-0.9,0.3-1.5,1.1-1.5,2c0.1,1.2,1.1,2.2,2.3,2.1c0,0,0,0,0,0h6
			c1.1,0,2-0.8,2.1-1.9C717,10.7,716.3,9.9,715.3,9.8L715.3,9.8z M662.1-3.1c0.1-0.2,0.1-0.3,0.1-0.5c0-0.8-0.7-1.4-1.5-1.4
			c-0.3,0-0.6,0.1-0.9,0.2c-0.5-0.8-1.3-1.2-2.2-1.2c-1.4-0.1-2.5,1-2.6,2.4v0.1c-0.9,0.3-1.5,1.1-1.5,2c0.1,1.2,1.1,2.2,2.3,2.1
			c0,0,0,0,0,0h6c1.1,0,2-0.8,2.1-1.9C663.8-2.2,663.1-2.9,662.1-3.1z M692.7,20.1l-0.5,0.9l-1.1,0.1c-0.1,0-0.2,0.1-0.2,0.2
			c0,0.1,0,0.1,0.1,0.1l0.8,0.7l-0.2,1c0,0.1,0.1,0.2,0.2,0.2c0,0,0.1,0,0.1,0l1-0.5l0.9,0.5c0.1,0.1,0.3,0,0.3-0.1c0,0,0-0.1,0-0.1
			l-0.2-1l0.8-0.7c0.1-0.1,0.1-0.2,0-0.3c0,0-0.1-0.1-0.1-0.1l-1.1-0.1l-0.5-0.9C693.1,20,692.9,20,692.7,20.1
			C692.8,20.1,692.7,20.1,692.7,20.1L692.7,20.1z M675.6,6.6l-0.5,0.9L674,7.6c-0.1,0-0.2,0.1-0.2,0.2c0,0.1,0,0.1,0.1,0.1l0.8,0.7
			l-0.2,1c0,0.1,0.1,0.2,0.2,0.2c0,0,0.1,0,0.1,0l1-0.5l0.9,0.5c0.1,0.1,0.3,0,0.3-0.1c0,0,0-0.1,0-0.1l-0.2-1l0.8-0.7
			c0.1-0.1,0.1-0.2,0-0.3c0,0-0.1-0.1-0.1-0.1l-1.1-0.1L676,6.6c-0.1-0.1-0.2-0.2-0.3-0.1C675.6,6.5,675.6,6.5,675.6,6.6z"/>
		<path class="st3" d="M693.9-7.7l-0.5,0.9l-1.1,0.1c-0.1,0-0.2,0.1-0.2,0.2c0,0,0,0.1,0.1,0.1l0.8,0.7l-0.2,1
			c0,0.1,0.1,0.2,0.2,0.2c0,0,0.1,0,0.1,0l1-0.5l0.9,0.5c0.1,0.1,0.3,0,0.3-0.1c0,0,0-0.1,0-0.1l-0.2-1l0.8-0.7
			c0.1-0.1,0.1-0.2,0-0.3c0,0-0.1-0.1-0.1-0.1l-1.1-0.1l-0.5-0.9C694.2-7.8,694.1-7.8,693.9-7.7C693.9-7.7,693.9-7.7,693.9-7.7z
			 M656.3,23.9l-0.5,0.9l-1.1,0.1c-0.1,0-0.2,0.1-0.2,0.2c0,0,0,0.1,0.1,0.1l0.8,0.7l-0.2,1c0,0.1,0.1,0.2,0.2,0.2c0,0,0.1,0,0.1,0
			l1-0.5l0.9,0.5c0.1,0.1,0.3,0,0.3-0.1c0,0,0-0.1,0-0.1l-0.2-1l0.8-0.7c0.1-0.1,0.1-0.2,0-0.3c0,0-0.1-0.1-0.1-0.1l-1.1-0.1
			l-0.5-0.9c-0.1-0.1-0.2-0.2-0.3-0.1C656.4,23.8,656.3,23.9,656.3,23.9L656.3,23.9z"/>
		<path class="st4" d="M864.7-3.4c0.1-0.2,0.1-0.3,0.1-0.5c-0.1-0.8-0.7-1.4-1.5-1.4c-0.3,0-0.6,0.1-0.9,0.3
			c-0.5-0.8-1.3-1.2-2.2-1.2c-1.4-0.1-2.5,1-2.6,2.4v0.1c-0.9,0.3-1.5,1.1-1.5,2c0.1,1.2,1.1,2.2,2.3,2.1c0,0,0,0,0,0h6
			c1.1,0,2-0.8,2-1.9C866.3-2.5,865.6-3.2,864.7-3.4z M908,16.6c0.1-0.2,0.1-0.3,0.1-0.5c-0.1-0.8-0.7-1.4-1.5-1.4
			c-0.3,0-0.6,0.1-0.9,0.3c-0.5-0.8-1.3-1.2-2.3-1.2c-1.4-0.1-2.5,1-2.6,2.4v0.1c-0.9,0.3-1.5,1.1-1.5,2c0.1,1.2,1.1,2.2,2.3,2.1
			c0,0,0,0,0,0h6c1.1,0,2-0.8,2.1-1.9C909.7,17.5,909,16.7,908,16.6z M866.2,25.9l-0.5,0.9l-1.1,0.1c-0.1,0-0.2,0.1-0.2,0.2
			c0,0.1,0,0.1,0.1,0.1l0.8,0.7l-0.2,1c0,0.1,0.1,0.2,0.2,0.2c0,0,0.1,0,0.1,0l1-0.5l0.9,0.5c0.1,0.1,0.3,0,0.3-0.1c0,0,0-0.1,0-0.1
			l-0.2-1l0.8-0.7c0.1-0.1,0.1-0.2,0-0.3c0,0-0.1-0.1-0.1-0.1l-1.1-0.1l-0.5-0.9C866.5,25.8,866.4,25.8,866.2,25.9
			C866.2,25.8,866.2,25.9,866.2,25.9L866.2,25.9z M882.8,21.3c-0.2,0.2-0.2,0.4,0,0.6c0,0,0,0,0,0c0.2,0.2,0.6,0.2,0.8,0
			c0.2-0.2,0.2-0.4,0-0.6c0,0,0,0,0,0C883.3,21.1,883,21.1,882.8,21.3L882.8,21.3z M885.5,19.1c0.1-0.1,0.1-0.2,0-0.2c0,0,0,0,0,0
			l-0.4-0.4c-0.1,0-0.1,0-0.2,0l-2.7,1.1c-0.6,0.2-1,0.7-1.3,1.2c-0.4,0.8-0.2,1.8,0.5,2.4c0.7,0.6,1.7,0.8,2.7,0.5
			c0.6-0.2,1.1-0.6,1.3-1.2l0.1-0.2h0c0.2,0,0.3,0,0.4-0.1l0.5-0.4c0.2-0.2,0.2-0.4,0-0.6c0,0,0,0,0,0c-0.1-0.1-0.2-0.1-0.3-0.1
			l0.5-0.9c0-0.1,0-0.1,0-0.2l-0.4-0.4c-0.1-0.1-0.2-0.1-0.2,0l-1.1,1l-0.5-0.5L885.5,19.1L885.5,19.1z M882.2,22.8
			c-0.1,0.1-0.2,0.1-0.2,0l0,0c-0.1-0.1-0.1-0.2,0-0.2c0,0,0,0,0,0c0.1-0.1,0.2-0.1,0.2,0C882.2,22.6,882.2,22.7,882.2,22.8
			L882.2,22.8z M883.2,23.2c-0.1,0.1-0.2,0.1-0.2,0c-0.1-0.1-0.1-0.2,0-0.2c0,0,0,0,0,0c0.1-0.1,0.2-0.1,0.2,0
			C883.2,23,883.2,23.1,883.2,23.2L883.2,23.2z M881.7,21.9c-0.1,0.1-0.2,0.1-0.2,0c-0.1-0.1-0.1-0.2,0-0.2c0,0,0,0,0,0
			c0.1-0.1,0.2-0.1,0.2,0C881.7,21.7,881.7,21.8,881.7,21.9L881.7,21.9z M883.8,22.2c-0.3,0.3-0.9,0.3-1.2,0c-0.3-0.3-0.3-0.8,0-1.1
			c0,0,0,0,0,0c0.4-0.3,0.9-0.3,1.2,0C884.1,21.4,884.1,21.9,883.8,22.2C883.8,22.2,883.8,22.2,883.8,22.2L883.8,22.2z M897,32.4
			l-0.5,0.9l-1.1,0.1c-0.1,0-0.2,0.1-0.2,0.2c0,0.1,0,0.1,0.1,0.2l0.8,0.7l-0.2,1c0,0.1,0.1,0.2,0.2,0.2c0,0,0.1,0,0.1,0l1-0.5
			l0.9,0.5c0.1,0.1,0.3,0,0.3-0.1c0,0,0-0.1,0-0.1l-0.2-0.9l0.8-0.7c0.1-0.1,0.1-0.2,0-0.3c0,0-0.1-0.1-0.2-0.1l-1.1-0.1l-0.5-0.9
			C897.3,32.3,897.2,32.3,897,32.4C897,32.4,897,32.4,897,32.4L897,32.4z M913.9-5.1l-0.5,0.9l-1.1,0.1c-0.1,0-0.2,0.1-0.2,0.2
			c0,0.1,0,0.1,0.1,0.1l0.8,0.7l-0.2,1c0,0.1,0.1,0.2,0.2,0.3c0,0,0.1,0,0.1,0l1-0.5l0.9,0.5c0.1,0.1,0.3,0,0.3-0.1c0,0,0-0.1,0-0.1
			l-0.2-0.9l0.8-0.7c0.1-0.1,0.1-0.2,0-0.3c0,0-0.1-0.1-0.1-0.1l-1.1-0.1l-0.5-0.9C914.3-5.2,914.1-5.3,913.9-5.1
			C914-5.2,913.9-5.1,913.9-5.1L913.9-5.1z"/>
		<path class="st3" d="M882.7,7.1L882.3,8l-1.1,0.1c-0.1,0-0.2,0.1-0.2,0.2c0,0.1,0,0.1,0.1,0.1l0.8,0.7l-0.2,1
			c0,0.1,0.1,0.2,0.2,0.3c0,0,0.1,0,0.1,0l1-0.5l0.9,0.5c0.1,0.1,0.3,0,0.3-0.1c0,0,0-0.1,0-0.1l-0.2-1l0.8-0.7
			c0.1-0.1,0.1-0.2,0-0.3c0,0-0.1-0.1-0.1-0.1L883.6,8l-0.5-0.9C883.1,7,883,6.9,882.8,7C882.8,7,882.8,7,882.7,7.1L882.7,7.1z
			 M928.2,16.7l-0.5,0.9l-1.1,0.1c-0.1,0-0.2,0.1-0.2,0.2c0,0.1,0,0.1,0.1,0.1l0.8,0.7l-0.2,1c0,0.1,0.1,0.2,0.2,0.2
			c0,0,0.1,0,0.1,0l1-0.5l0.9,0.5c0.1,0.1,0.3,0,0.3-0.1c0,0,0-0.1,0-0.1l-0.2-1l0.8-0.7c0.1-0.1,0.1-0.2,0-0.3c0,0-0.1-0.1-0.1-0.1
			l-1.1-0.1l-0.5-0.9C928.5,16.5,928.4,16.5,928.2,16.7C928.2,16.6,928.2,16.6,928.2,16.7L928.2,16.7z"/>
	</g>
</g>
<g>
	<defs>
		<rect id="SVGID_11_" x="951" y="-31.4" width="309" height="88.3"/>
	</defs>
	<clipPath id="SVGID_8_">
		<use xlink:href="#SVGID_11_"  style="overflow:visible;"/>
	</clipPath>
	<g class="st7">
		<path class="st1" d="M1070.1,57l-16.7-23.6c-0.6-0.8-1.8-1-2.6-0.4c-0.2,0.1-0.3,0.3-0.4,0.4L1033.7,57c-0.2,0.3-0.3,0.6-0.3,0.9
			c0,0.3,0.1,0.5,0.2,0.8c0.4,0.5,1,0.8,1.6,0.8h33.4c0.6,0,1.3-0.3,1.6-0.8c0.1-0.2,0.2-0.5,0.2-0.8
			C1070.4,57.6,1070.3,57.2,1070.1,57z M1051.9,37.5l4.9,6.9h-4.9l-3.7,3.4l-2.3-2L1051.9,37.5z M1254.7,57L1238,33.4
			c-0.6-0.8-1.8-1-2.6-0.4c-0.2,0.1-0.3,0.3-0.4,0.4L1218.2,57c-0.2,0.3-0.3,0.6-0.3,0.9c0,0.3,0.1,0.5,0.2,0.8
			c0.4,0.5,1,0.8,1.6,0.8h33.4c0.6,0,1.3-0.3,1.6-0.8c0.1-0.2,0.2-0.5,0.2-0.8C1255,57.6,1254.9,57.2,1254.7,57z M1236.5,37.5
			l4.9,6.9h-4.9l-3.7,3.4l-2.3-2L1236.5,37.5z M1001.4,57.4l-11.2-15.6c-0.7-0.8-1.8-0.9-2.7-0.3c-0.1,0.1-0.2,0.2-0.3,0.3l-1.9,2.7
			l4,5.5c0.1,0.2,0.1,0.4-0.1,0.5c0,0,0,0,0,0l-0.8,0.5c-0.2,0.1-0.5,0-0.6-0.2l-3.5-4.9l-4.1-5.8c-0.7-0.9-2-1-2.9-0.3
			c-0.1,0.1-0.2,0.2-0.3,0.3l-12,17.1c-0.7,1,0.1,2.3,1.5,2.3h33.6C1001.3,59.6,1002.1,58.4,1001.4,57.4L1001.4,57.4z M1162.7,56.3
			l-2.9-3.1h1.2c0.5,0.1,0.9-0.3,1-0.8c0-0.2,0-0.5-0.2-0.7l-3.1-3.3h1.4c0.7,0,1.1-0.7,0.7-1.1l-4.4-4.3c-0.4-0.3-0.9-0.3-1.3,0
			l-4.4,4.3c-0.4,0.4-0.1,1.1,0.7,1.1h1.5l-3.1,3.3c-0.6,0.6-0.1,1.4,0.8,1.4h1.2l-2.9,3.1c-0.4,0.4-0.3,1,0.1,1.4
			c0.2,0.2,0.5,0.3,0.8,0.3h12.4c0.5,0.1,1-0.3,1.1-0.9C1163,56.8,1162.9,56.5,1162.7,56.3L1162.7,56.3z"/>
		<path class="st1" d="M1168.7,56.3l-2.9-3.1h1.2c0.5,0.1,0.9-0.3,1-0.8c0-0.2,0-0.5-0.2-0.7l-3.1-3.3h1.4c0.7,0,1.1-0.7,0.7-1.1
			l-4.4-4.3c-0.4-0.3-0.9-0.3-1.3,0l-4.4,4.3c-0.4,0.4-0.1,1.1,0.7,1.1h1.4l-3.1,3.3c-0.6,0.6-0.1,1.4,0.8,1.4h1.2l-2.9,3.1
			c-0.4,0.4-0.3,1,0.1,1.4c0.2,0.2,0.5,0.3,0.8,0.3h12.4c0.5,0,1-0.4,1.1-0.9C1169,56.8,1168.9,56.5,1168.7,56.3L1168.7,56.3z
			 M1186.7,56.3l-2.9-3.1h1.2c0.5,0.1,0.9-0.3,1-0.8c0-0.2,0-0.5-0.2-0.7l-3.1-3.3h1.4c0.7,0,1.1-0.7,0.7-1.1l-4.4-4.3
			c-0.4-0.3-0.9-0.3-1.3,0l-4.4,4.3c-0.4,0.4-0.1,1.1,0.7,1.1h1.5l-3.1,3.3c-0.6,0.6-0.1,1.4,0.8,1.4h1.2l-2.9,3.1
			c-0.4,0.4-0.3,1,0.1,1.4c0.2,0.2,0.5,0.3,0.8,0.3h12.4c0.5,0,1-0.4,1.1-0.9C1187,56.8,1186.9,56.5,1186.7,56.3L1186.7,56.3z
			 M1213.4,56.3l-2.9-3.1h1.1c0.5,0.1,0.9-0.3,1-0.8c0-0.2,0-0.5-0.2-0.7l-3.1-3.3h1.4c0.7,0,1.1-0.7,0.7-1.1l-4.4-4.3
			c-0.4-0.3-0.9-0.3-1.3,0l-4.4,4.3c-0.4,0.4-0.1,1.1,0.7,1.1h1.5l-3.1,3.3c-0.6,0.6-0.1,1.4,0.8,1.4h1.2l-2.9,3.1
			c-0.4,0.4-0.3,1,0.1,1.4c0.2,0.2,0.5,0.3,0.8,0.3h12.4c0.5,0,1-0.4,1.1-0.9C1213.7,56.8,1213.7,56.5,1213.4,56.3L1213.4,56.3z
			 M1039.7,56.3l-2.9-3.1h1.2c0.9,0,1.3-0.9,0.8-1.4l-3.1-3.3h1.4c0.7,0,1.1-0.7,0.7-1.1l-4.4-4.3c-0.4-0.3-0.9-0.3-1.3,0l-4.5,4.3
			c-0.4,0.4-0.1,1.1,0.7,1.1h1.5l-3.1,3.3c-0.6,0.6-0.1,1.4,0.8,1.4h1.2l-2.9,3.1c-0.4,0.4-0.3,1,0.1,1.4c0.2,0.2,0.5,0.3,0.8,0.3
			h12.4c0.5,0,1-0.4,1.1-0.9C1040,56.8,1039.9,56.5,1039.7,56.3L1039.7,56.3z M1021.8,56.3l-2.9-3.1h1.2c0.5,0.1,0.9-0.3,1-0.8
			c0-0.2,0-0.5-0.2-0.7l-3.1-3.3h1.4c0.7,0,1.1-0.7,0.7-1.1l-4.4-4.3c-0.4-0.3-0.9-0.3-1.3,0l-4.4,4.3c-0.4,0.4-0.1,1.1,0.7,1.1h1.5
			l-3.1,3.3c-0.6,0.6-0.1,1.4,0.8,1.4h1.2l-2.9,3.1c-0.4,0.4-0.3,1,0.1,1.4c0.2,0.2,0.5,0.3,0.8,0.3h12.4c0.5,0,1-0.4,1-1
			C1022,56.7,1021.9,56.5,1021.8,56.3L1021.8,56.3z"/>
		<path class="st1" d="M1016.2,56.3l-2.9-3.1h1.2c0.9,0,1.3-0.9,0.8-1.4l-3.1-3.3h1.4c0.7,0,1.1-0.7,0.7-1.1l-4.4-4.3
			c-0.4-0.3-0.9-0.3-1.3,0l-4.4,4.3c-0.4,0.4-0.1,1.1,0.7,1.1h1.5l-3.1,3.3c-0.6,0.6-0.1,1.4,0.8,1.4h1.2l-2.9,3.1
			c-0.4,0.4-0.3,1,0.1,1.4c0.2,0.2,0.5,0.3,0.8,0.3h12.3c0.5,0.1,1-0.3,1.1-0.9C1016.5,56.8,1016.4,56.5,1016.2,56.3z M972,56.3
			l-2.9-3.1h1.2c0.5,0.1,0.9-0.3,1-0.8c0-0.2,0-0.5-0.2-0.7l-3.1-3.3h1.4c0.7,0,1.1-0.7,0.7-1.1l-4.4-4.3c-0.4-0.3-0.9-0.3-1.3,0
			l-4.4,4.3c-0.4,0.4-0.1,1.1,0.7,1.1h1.5l-3.1,3.3c-0.6,0.6-0.1,1.4,0.8,1.4h1.1l-2.9,3.1c-0.4,0.4-0.3,1,0.1,1.4
			c0.2,0.2,0.5,0.3,0.8,0.3h12.4c0.5,0,1-0.4,1.1-0.9C972.3,56.8,972.2,56.5,972,56.3L972,56.3z"/>
		<path class="st2" d="M1124.1,48.3h6.5v5.2h-6.5V48.3z"/>
		<path class="st1" d="M1135.5,50.4l-1.7-1.3v-3.6c0-0.2-0.2-0.4-0.5-0.4h-1.9c-0.2,0-0.4,0.2-0.5,0.4v1.4l-3-2.4
			c-0.4-0.4-1.1-0.4-1.5,0l-7.4,5.9c-0.1,0.1-0.2,0.2-0.2,0.3c0,0.1,0.1,0.2,0.1,0.3l0.6,0.6c0.1,0.1,0.2,0.1,0.3,0.1
			c0.1,0,0.2,0,0.3-0.1l0.5-0.4v5.5c0,0.5,0.4,0.9,0.9,0.8c0,0,0,0,0,0h11.1c0.5,0,0.9-0.4,0.9-0.8v-5.5l0.4,0.4
			c0.1,0.1,0.2,0.1,0.3,0.1c0.1,0,0.2,0,0.3-0.1l0.6-0.6c0.1-0.1,0.1-0.2,0.1-0.3C1135.6,50.6,1135.6,50.5,1135.5,50.4z M1129.2,52
			c0,0.3-0.3,0.6-0.6,0.6h-2.5c-0.3,0-0.6-0.2-0.6-0.5c0,0,0,0,0,0v-2.2c0-0.3,0.3-0.6,0.6-0.6h2.5c0.3,0,0.6,0.3,0.6,0.6V52z"/>
		<path class="st3" d="M1099.2,56.4c0,0.2,0.1,0.5,0.3,0.5c0,0,0,0,0,0h0.1c0.2,0,0.4-0.1,0.5-0.3l0.4-1.3l-0.8-0.7L1099.2,56.4z
			 M1099.4,53.8l0.6-2.1c0-0.1-0.1-0.2-0.2-0.2c-0.6-0.2-1.2,0.2-1.4,0.8l-0.4,1.3c0,0.1,0.1,0.2,0.2,0.3c0,0,0,0,0,0l0.9,0.2
			C1099.2,54,1099.3,53.9,1099.4,53.8z M1103.3,52.3h-0.2c-0.1,0-0.2,0.1-0.2,0.2v0.2h-0.5l-0.7-0.6c-0.2-0.2-0.4-0.2-0.6-0.2
			c-0.4,0-0.7,0.2-0.8,0.6l-0.4,1.4V54c0,0.1,0.1,0.2,0.1,0.3l1.3,1.1v1.1c0,0.2,0.2,0.4,0.5,0.4c0,0,0,0,0,0c0.2,0,0.4-0.2,0.5-0.4
			v-1.1c0-0.2-0.1-0.4-0.3-0.6l-0.7-0.6l0,0l0.3-1l0.3,0.3c0.1,0.1,0.2,0.1,0.3,0.1h0.7v3.2c0,0.1,0.1,0.2,0.2,0.2h0.2
			c0.1,0,0.2-0.1,0.2-0.2v-4.2C1103.6,52.4,1103.5,52.3,1103.3,52.3C1103.3,52.3,1103.3,52.3,1103.3,52.3L1103.3,52.3z M1101.5,51.5
			c0.4,0,0.7-0.3,0.7-0.6c0-0.4-0.3-0.6-0.7-0.6c-0.4,0-0.7,0.3-0.7,0.6C1100.8,51.2,1101.1,51.5,1101.5,51.5
			C1101.5,51.4,1101.5,51.4,1101.5,51.5L1101.5,51.5z M1014.8,54.9c-0.6,0.3-1.4,0.1-1.7-0.5c0,0,0-0.1-0.1-0.1
			c-0.9,0.2-1.5,0.9-1.5,1.8v0.3c-0.2,0-0.3-0.1-0.3-0.3l0,0v-2c-0.1-0.4-0.5-0.6-0.9-0.5c-0.3,0.1-0.5,0.3-0.5,0.5l0,0v0.4
			c0,0.1,0.1,0.3,0.3,0.3c0,0,0,0,0,0l0,0c0.2,0,0.3-0.1,0.3-0.3c0,0,0,0,0,0v-0.4c0-0.1,0.1-0.1,0.2-0.1c0.1,0,0.1,0.1,0.1,0.1v2
			c0,0.5,0.4,0.8,0.9,0.8h2.2c0.1,0,0.1-0.1,0.1-0.1v-0.1c0-0.2-0.1-0.3-0.3-0.3h-0.6l1.4-0.9l0.3,0.9v0.1v0.3
			c0,0.1,0.1,0.1,0.1,0.1c0,0,0,0,0,0h0.3c0.1,0,0.1-0.1,0.2-0.1v-0.3c0-0.1,0-0.2,0-0.3L1014.8,54.9L1014.8,54.9z M1015.2,53.2
			h-0.2c-0.1-0.3-0.5-0.5-0.8-0.5c-0.4,0-0.7,0.2-0.8,0.5h-0.2c-0.2,0-0.4,0.2-0.4,0.4c0,0.2,0.2,0.4,0.4,0.4c0,0,0,0,0,0h0.1
			c0,0.5,0.5,0.9,1,0.8c0.4,0,0.8-0.4,0.8-0.8h0.1c0.2,0,0.4-0.2,0.4-0.4C1015.6,53.3,1015.4,53.2,1015.2,53.2
			C1015.2,53.2,1015.2,53.2,1015.2,53.2z M1013.8,53.6c-0.1,0-0.1,0-0.2-0.1c0-0.1,0-0.1,0.1-0.2c0,0,0,0,0.1,0c0.1,0,0.1,0,0.2,0.1
			C1014,53.5,1013.9,53.6,1013.8,53.6C1013.8,53.6,1013.8,53.6,1013.8,53.6z M1014.6,53.6c-0.1,0-0.1-0.1-0.1-0.1l0,0
			c0-0.1,0.1-0.1,0.1-0.1c0,0,0,0,0,0c0.1,0,0.1,0,0.2,0.1C1014.7,53.5,1014.7,53.6,1014.6,53.6
			C1014.6,53.6,1014.6,53.6,1014.6,53.6L1014.6,53.6z M1071.6,55.7h-0.3c-0.4,0-0.8,0.1-1.2,0.4v-0.6c0.1,0,0.2,0,0.2,0
			c0.3,0,0.6-0.2,0.6-0.5c0,0,0,0,0,0c0-0.2-0.1-0.3-0.2-0.4c0.1-0.1,0.2-0.3,0.2-0.4c0-0.3-0.3-0.5-0.6-0.5l0,0
			c-0.2,0-0.3,0.1-0.5,0.2c-0.1-0.1-0.3-0.2-0.5-0.2c-0.3,0-0.5,0.2-0.6,0.5c0,0,0,0,0,0l0,0c0,0.2,0.1,0.3,0.2,0.4
			c-0.1,0.1-0.2,0.3-0.2,0.4c0,0.3,0.3,0.5,0.6,0.5c0,0,0,0,0,0c0.1,0,0.2,0,0.2,0V56c-0.3-0.3-0.7-0.4-1.2-0.4h-0.3
			c-0.1,0-0.1,0-0.1,0.1c0,0,0,0,0,0c0.2,0.7,0.9,1.2,1.6,1.2h0.5c0.7,0.1,1.4-0.4,1.6-1.2C1071.7,55.7,1071.7,55.7,1071.6,55.7
			C1071.6,55.6,1071.6,55.6,1071.6,55.7L1071.6,55.7z M1069.9,54.8c-0.2,0-0.3-0.1-0.4-0.3c0,0,0,0,0,0c0-0.2,0.1-0.4,0.3-0.4
			c0.2,0,0.4,0.1,0.4,0.3C1070.2,54.6,1070.1,54.8,1069.9,54.8C1069.9,54.8,1069.9,54.8,1069.9,54.8z M1156.1,55.7h-0.3
			c-0.4,0-0.8,0.1-1.2,0.4v-0.6c0.1,0,0.2,0,0.2,0c0.3,0,0.6-0.2,0.6-0.5c0,0,0,0,0,0c0-0.2-0.1-0.3-0.2-0.4
			c0.1-0.1,0.2-0.3,0.2-0.4c0-0.3-0.3-0.5-0.6-0.5l0,0c-0.2,0-0.3,0.1-0.5,0.2c-0.1-0.1-0.3-0.2-0.5-0.2c-0.3,0-0.5,0.2-0.6,0.5
			c0,0,0,0,0,0l0,0c0,0.2,0.1,0.3,0.2,0.4c-0.1,0.1-0.2,0.3-0.2,0.4c0,0.3,0.3,0.5,0.6,0.5c0,0,0,0,0,0c0.1,0,0.2,0,0.2,0V56
			c-0.3-0.3-0.7-0.4-1.2-0.4h-0.4c-0.1,0-0.1,0-0.1,0.1c0,0,0,0,0,0c0.2,0.7,0.9,1.2,1.6,1.2h0.5c0.7,0.1,1.4-0.4,1.6-1.2
			C1156.2,55.7,1156.1,55.7,1156.1,55.7C1156.1,55.6,1156.1,55.6,1156.1,55.7L1156.1,55.7z M1154.3,54.8c-0.2,0-0.3-0.1-0.4-0.3
			c0,0,0,0,0,0c0-0.2,0.1-0.4,0.3-0.4c0.2,0,0.4,0.1,0.4,0.3C1154.7,54.6,1154.6,54.8,1154.3,54.8
			C1154.4,54.8,1154.4,54.8,1154.3,54.8z M1078.1,55.7h-0.3c-0.4,0-0.8,0.1-1.2,0.4v-0.6c0.1,0,0.2,0,0.2,0c0.3,0,0.6-0.2,0.6-0.5
			c0-0.2-0.1-0.3-0.2-0.4c0.1-0.1,0.2-0.3,0.2-0.4c0-0.3-0.3-0.5-0.5-0.5c0,0,0,0,0,0l0,0c-0.2,0-0.3,0.1-0.5,0.2
			c-0.1-0.1-0.3-0.2-0.5-0.2c-0.3,0-0.6,0.2-0.6,0.5c0,0,0,0,0,0l0,0c0,0.2,0.1,0.3,0.2,0.4c-0.1,0.1-0.2,0.3-0.2,0.4
			c0,0.3,0.3,0.5,0.6,0.5c0,0,0,0,0,0c0.1,0,0.2,0,0.2,0V56c-0.3-0.3-0.7-0.4-1.2-0.4h-0.3c-0.1,0-0.1,0-0.1,0.1c0,0,0,0,0,0
			c0.2,0.7,0.9,1.2,1.6,1.2h0.5c0.7,0.1,1.4-0.4,1.6-1.2C1078.2,55.7,1078.2,55.7,1078.1,55.7C1078.1,55.6,1078.1,55.6,1078.1,55.7
			L1078.1,55.7z M1076.4,54.8c-0.2,0-0.3-0.1-0.3-0.3c0-0.2,0.1-0.3,0.3-0.3c0,0,0,0,0,0c0.2,0,0.3,0.1,0.4,0.3
			C1076.7,54.7,1076.5,54.8,1076.4,54.8C1076.3,54.8,1076.3,54.8,1076.4,54.8L1076.4,54.8z M1162.6,55.7h-0.3
			c-0.4,0-0.8,0.1-1.2,0.4v-0.6c0.1,0,0.2,0,0.2,0c0.3,0,0.6-0.2,0.6-0.5c0-0.2-0.1-0.3-0.2-0.4c0.1-0.1,0.2-0.3,0.2-0.4
			c0-0.3-0.3-0.5-0.5-0.5c0,0,0,0,0,0l0,0c-0.2,0-0.3,0.1-0.5,0.2c-0.1-0.1-0.3-0.2-0.5-0.2c-0.3,0-0.6,0.2-0.6,0.5c0,0,0,0,0,0l0,0
			c0,0.2,0.1,0.3,0.2,0.4c-0.1,0.1-0.2,0.3-0.2,0.4c0,0.3,0.3,0.5,0.6,0.5c0,0,0,0,0,0c0.1,0,0.2,0,0.2,0V56
			c-0.3-0.3-0.7-0.4-1.2-0.4h-0.3c-0.1,0-0.1,0-0.1,0.1c0,0,0,0,0,0c0.2,0.7,0.9,1.2,1.6,1.2h0.4c0.7,0.1,1.4-0.4,1.6-1.2
			C1162.7,55.7,1162.6,55.7,1162.6,55.7z M1160.8,54.8c-0.2,0-0.3-0.1-0.3-0.3c0-0.2,0.1-0.3,0.3-0.3c0,0,0,0,0,0
			c0.2,0,0.3,0.1,0.4,0.3C1161.2,54.7,1161,54.8,1160.8,54.8C1160.8,54.8,1160.8,54.8,1160.8,54.8L1160.8,54.8z M1065.1,55.7h-0.3
			c-0.4,0-0.8,0.1-1.2,0.4v-0.6c0.1,0,0.2,0,0.2,0c0.3,0,0.6-0.2,0.6-0.5c0-0.2-0.1-0.3-0.2-0.4c0.1-0.1,0.2-0.3,0.2-0.4
			c0-0.3-0.3-0.5-0.6-0.5l0,0c-0.2,0.3-0.6,0.3-0.9,0c0,0,0,0,0,0c-0.3,0-0.6,0.2-0.6,0.5c0,0,0,0,0,0l0,0c0,0.2,0.1,0.3,0.2,0.4
			c-0.1,0.1-0.2,0.3-0.2,0.4c0,0.3,0.3,0.5,0.6,0.5c0,0,0,0,0,0c0.1,0,0.2,0,0.2,0V56c-0.3-0.3-0.7-0.4-1.2-0.4h-0.3
			c-0.1,0-0.1,0-0.1,0.1c0,0,0,0,0,0c0.2,0.7,0.9,1.2,1.6,1.2h0.5c0.7,0.1,1.4-0.4,1.6-1.2C1065.2,55.7,1065.2,55.7,1065.1,55.7
			C1065.1,55.6,1065.1,55.6,1065.1,55.7L1065.1,55.7z M1063.4,54.8c-0.2,0-0.3-0.1-0.3-0.3c0,0,0,0,0,0c0-0.2,0.2-0.3,0.3-0.3
			c0,0,0,0,0,0c0.2,0,0.3,0.1,0.4,0.3C1063.7,54.7,1063.6,54.8,1063.4,54.8C1063.4,54.8,1063.4,54.8,1063.4,54.8L1063.4,54.8z
			 M1149.5,55.7h-0.3c-0.4,0-0.8,0.1-1.2,0.4v-0.6c0.1,0,0.2,0,0.2,0c0.3,0,0.6-0.2,0.6-0.5c0-0.2-0.1-0.3-0.2-0.4
			c0.1-0.1,0.2-0.3,0.2-0.4c0-0.3-0.3-0.5-0.6-0.5l0,0c-0.2,0.3-0.6,0.3-0.9,0c0,0,0,0,0,0c-0.3,0-0.6,0.2-0.6,0.5c0,0,0,0,0,0l0,0
			c0,0.2,0.1,0.3,0.2,0.4c-0.1,0.1-0.2,0.3-0.2,0.4c0,0.3,0.3,0.5,0.6,0.5c0.1,0,0.2,0,0.2,0V56c-0.3-0.3-0.7-0.4-1.2-0.4h-0.3
			c-0.1,0-0.1,0-0.1,0.1c0,0,0,0,0,0c0.2,0.7,0.9,1.2,1.6,1.2h0.5c0.7,0.1,1.4-0.4,1.6-1.2C1149.7,55.7,1149.6,55.7,1149.5,55.7
			C1149.5,55.7,1149.5,55.7,1149.5,55.7z M1147.8,54.8c-0.2,0-0.3-0.1-0.3-0.3c0-0.2,0.1-0.3,0.3-0.3c0,0,0,0,0,0
			c0.2,0,0.3,0.1,0.4,0.3C1148.1,54.7,1148,54.8,1147.8,54.8L1147.8,54.8z M1058.6,55.7h-0.3c-0.4,0-0.8,0.1-1.2,0.4v-0.6
			c0.1,0,0.2,0,0.2,0c0.3,0,0.6-0.2,0.6-0.5c0-0.2-0.1-0.3-0.2-0.4c0.1-0.1,0.2-0.3,0.2-0.4c0-0.3-0.3-0.5-0.6-0.5l0,0
			c-0.2,0-0.3,0.1-0.5,0.2c-0.1-0.1-0.3-0.2-0.5-0.2c-0.3,0-0.6,0.2-0.6,0.5c0,0,0,0,0,0l0,0c0,0.2,0.1,0.3,0.2,0.4
			c-0.1,0.1-0.2,0.3-0.2,0.4c0,0.3,0.3,0.5,0.6,0.5c0,0,0,0,0,0c0.1,0,0.2,0,0.2,0V56c-0.3-0.3-0.7-0.4-1.2-0.4h-0.3
			c-0.1,0-0.1,0-0.1,0.1c0,0,0,0,0,0c0.2,0.7,0.9,1.2,1.6,1.2h0.5c0.7,0.1,1.4-0.4,1.6-1.2C1058.8,55.7,1058.7,55.7,1058.6,55.7
			C1058.6,55.6,1058.6,55.6,1058.6,55.7L1058.6,55.7z M1056.8,54.8c-0.2,0-0.3-0.1-0.3-0.3c0,0,0,0,0,0c0-0.2,0.2-0.3,0.3-0.3
			c0.2,0,0.3,0.2,0.3,0.3C1057.2,54.7,1057,54.8,1056.8,54.8L1056.8,54.8z M1045.3,56.7l-2.6-2.7h1c0.8,0,1.2-0.8,0.7-1.3l-2.8-2.9
			h1.3c0.6,0,1-0.6,0.6-1l-3.9-3.8c-0.3-0.3-0.8-0.3-1.1,0l-3.9,3.8c-0.4,0.4-0.1,1,0.6,1h1.3l-2.7,2.9c-0.5,0.5-0.1,1.3,0.7,1.3h1
			l-2.6,2.7c-0.3,0.4-0.3,0.9,0,1.2c0.2,0.2,0.5,0.3,0.7,0.2h11c0.5,0,0.9-0.3,0.9-0.8C1045.6,57.1,1045.5,56.9,1045.3,56.7
			L1045.3,56.7z M1218.5,56.7l-2.6-2.7h1c0.8,0,1.2-0.8,0.7-1.3l-2.8-2.9h1.3c0.6,0,1-0.6,0.6-1l-3.9-3.8c-0.3-0.3-0.8-0.3-1.1,0
			l-3.9,3.8c-0.4,0.4-0.1,1,0.6,1h1.3l-2.8,2.9c-0.5,0.5-0.1,1.3,0.7,1.3h1l-2.6,2.7c-0.3,0.3-0.3,0.9,0,1.2
			c0.2,0.2,0.4,0.3,0.7,0.2h11.1c0.5,0,0.9-0.3,0.9-0.8C1218.7,57.1,1218.6,56.9,1218.5,56.7L1218.5,56.7z M1180.7,56.7l-2.6-2.7h1
			c0.8,0,1.2-0.8,0.7-1.3l-2.7-2.9h1.3c0.6,0,1-0.6,0.6-1l-3.9-3.8c-0.3-0.3-0.8-0.3-1.1,0l-3.9,3.8c-0.4,0.4-0.1,1,0.6,1h1.3
			l-2.8,2.9c-0.5,0.5-0.1,1.3,0.7,1.3h1l-2.6,2.7c-0.3,0.4-0.3,0.9,0.1,1.2c0.2,0.2,0.4,0.2,0.7,0.2h11c0.5,0,0.9-0.4,0.9-0.9
			C1180.9,57.1,1180.9,56.9,1180.7,56.7L1180.7,56.7z M1002.2,56.7l-2.6-2.7h1c0.8,0,1.2-0.8,0.7-1.3l-2.8-2.9h1.3
			c0.6,0,1-0.6,0.6-1l-3.9-3.8c-0.3-0.3-0.8-0.3-1.1,0l-3.9,3.8c-0.4,0.4-0.1,1,0.6,1h1.3l-2.8,2.9c-0.5,0.5-0.1,1.3,0.7,1.3h1.1
			l-2.6,2.7c-0.3,0.4-0.3,0.9,0.1,1.2c0.2,0.2,0.4,0.2,0.7,0.2h11.1c0.5,0,0.9-0.3,0.9-0.8C1002.5,57.1,1002.4,56.9,1002.2,56.7
			L1002.2,56.7z M1143,55.7h-0.3c-0.4,0-0.8,0.1-1.2,0.4v-0.6c0.1,0,0.2,0,0.2,0c0.3,0,0.6-0.2,0.6-0.5c0-0.2-0.1-0.3-0.2-0.4
			c0.1-0.1,0.2-0.3,0.2-0.4c0-0.3-0.3-0.5-0.6-0.5l0,0c-0.2,0-0.3,0.1-0.5,0.2c-0.1-0.1-0.3-0.2-0.5-0.2c-0.3,0-0.6,0.2-0.6,0.5
			c0,0,0,0,0,0l0,0c0,0.2,0.1,0.3,0.2,0.4c-0.1,0.1-0.2,0.3-0.2,0.4c0,0.3,0.3,0.5,0.6,0.5c0,0,0,0,0,0c0.1,0,0.2,0,0.2,0V56
			c-0.3-0.3-0.7-0.4-1.2-0.4h-0.3c-0.1,0-0.1,0-0.1,0.1c0,0,0,0,0,0c0.2,0.7,0.9,1.2,1.6,1.2h0.5c0.7,0.1,1.4-0.4,1.6-1.2
			C1143.2,55.7,1143.1,55.7,1143,55.7L1143,55.7z M1141.3,54.8c-0.2,0-0.3-0.1-0.3-0.3c0-0.2,0.1-0.3,0.3-0.3c0,0,0,0,0,0
			c0.2,0,0.3,0.1,0.3,0.3c0,0,0,0,0,0C1141.6,54.7,1141.5,54.8,1141.3,54.8L1141.3,54.8z"/>
		<path class="st4" d="M1034.2,9.8c0.1-0.2,0.1-0.3,0.1-0.5c-0.1-0.8-0.7-1.4-1.5-1.4c-0.3,0-0.6,0.1-0.9,0.3
			c-0.5-0.8-1.4-1.2-2.3-1.2c-1.4-0.1-2.5,1-2.6,2.4c0,0,0,0,0,0v0.1c-0.9,0.3-1.5,1.1-1.5,2c0.1,1.2,1.1,2.2,2.3,2.1c0,0,0,0,0,0h6
			c1.1,0,2-0.8,2.1-1.9C1035.9,10.7,1035.2,9.9,1034.2,9.8L1034.2,9.8z M981-3.1c0.1-0.2,0.1-0.3,0.1-0.5c0-0.8-0.7-1.4-1.5-1.4
			c-0.3,0-0.6,0.1-0.9,0.2c-0.5-0.8-1.3-1.2-2.2-1.2c-1.4-0.1-2.5,1-2.6,2.4v0.1c-0.9,0.3-1.5,1.1-1.5,2c0.1,1.2,1.1,2.2,2.3,2.1
			c0,0,0,0,0,0h6c1.1,0,2-0.8,2.1-1.9C982.7-2.2,982-2.9,981-3.1z M1011.6,20.1l-0.5,0.9l-1.1,0.1c-0.1,0-0.2,0.1-0.2,0.2
			c0,0.1,0,0.1,0.1,0.1l0.8,0.7l-0.2,1c0,0.1,0.1,0.2,0.2,0.2c0,0,0.1,0,0.1,0l1-0.5l0.9,0.5c0.1,0.1,0.3,0,0.3-0.1c0,0,0-0.1,0-0.1
			l-0.2-1l0.8-0.7c0.1-0.1,0.1-0.2,0-0.3c0,0-0.1-0.1-0.1-0.1l-1.1-0.1l-0.5-0.9C1011.9,20,1011.8,20,1011.6,20.1
			C1011.6,20.1,1011.6,20.1,1011.6,20.1L1011.6,20.1z M994.4,6.6L994,7.4l-1.1,0.1c-0.1,0-0.2,0.1-0.2,0.2c0,0.1,0,0.1,0.1,0.1
			l0.8,0.7l-0.2,1c0,0.1,0.1,0.2,0.2,0.2c0,0,0.1,0,0.1,0l1-0.5l0.9,0.5c0.1,0.1,0.3,0,0.3-0.1c0,0,0-0.1,0-0.1l-0.2-1l0.8-0.7
			c0.1-0.1,0.1-0.2,0-0.3c0,0-0.1-0.1-0.1-0.1l-1.1-0.1l-0.5-0.9c-0.1-0.1-0.2-0.2-0.3-0.1C994.5,6.5,994.5,6.5,994.4,6.6z"/>
		<path class="st3" d="M1012.7-7.7l-0.5,0.9l-1.1,0.1c-0.1,0-0.2,0.1-0.2,0.2c0,0,0,0.1,0.1,0.1l0.8,0.7l-0.2,1
			c0,0.1,0.1,0.2,0.2,0.2c0,0,0.1,0,0.1,0l1-0.5l0.9,0.5c0.1,0.1,0.3,0,0.3-0.1c0,0,0-0.1,0-0.1l-0.2-1l0.8-0.7
			c0.1-0.1,0.1-0.2,0-0.3c0,0-0.1-0.1-0.1-0.1l-1.1-0.1l-0.5-0.9C1013.1-7.8,1012.9-7.8,1012.7-7.7
			C1012.8-7.7,1012.8-7.7,1012.7-7.7z M975.2,23.9l-0.5,0.9l-1.1,0.1c-0.1,0-0.2,0.1-0.2,0.2c0,0,0,0.1,0.1,0.1l0.8,0.7l-0.2,1
			c0,0.1,0.1,0.2,0.2,0.2c0,0,0.1,0,0.1,0l1-0.5l0.9,0.5c0.1,0.1,0.3,0,0.3-0.1c0,0,0-0.1,0-0.1l-0.2-1l0.8-0.7
			c0.1-0.1,0.1-0.2,0-0.3c0,0-0.1-0.1-0.1-0.1l-1.1-0.1l-0.5-0.9c-0.1-0.1-0.2-0.2-0.3-0.1C975.3,23.8,975.2,23.9,975.2,23.9
			L975.2,23.9z"/>
		<path class="st4" d="M1183.6-3.4c0.1-0.2,0.1-0.3,0.1-0.5c-0.1-0.8-0.7-1.4-1.5-1.4c-0.3,0-0.6,0.1-0.9,0.3
			c-0.5-0.8-1.3-1.2-2.2-1.2c-1.4-0.1-2.5,1-2.6,2.4v0.1c-0.9,0.3-1.5,1.1-1.5,2c0.1,1.2,1.1,2.2,2.3,2.1c0,0,0,0,0,0h6
			c1.1,0,2-0.8,2-1.9C1185.2-2.5,1184.5-3.2,1183.6-3.4z M1226.9,16.6c0.1-0.2,0.1-0.3,0.1-0.5c-0.1-0.8-0.7-1.4-1.5-1.4
			c-0.3,0-0.6,0.1-0.9,0.3c-0.5-0.8-1.3-1.2-2.3-1.2c-1.4-0.1-2.5,1-2.6,2.4v0.1c-0.9,0.3-1.5,1.1-1.5,2c0.1,1.2,1.1,2.2,2.3,2.1
			c0,0,0,0,0,0h6c1.1,0,2-0.8,2.1-1.9C1228.6,17.5,1227.9,16.7,1226.9,16.6z M1185,25.9l-0.5,0.9l-1.1,0.1c-0.1,0-0.2,0.1-0.2,0.2
			c0,0.1,0,0.1,0.1,0.1l0.8,0.7l-0.2,1c0,0.1,0.1,0.2,0.2,0.2c0,0,0.1,0,0.1,0l1-0.5l0.9,0.5c0.1,0.1,0.3,0,0.3-0.1c0,0,0-0.1,0-0.1
			l-0.2-1l0.8-0.7c0.1-0.1,0.1-0.2,0-0.3c0,0-0.1-0.1-0.1-0.1l-1.1-0.1l-0.5-0.9C1185.4,25.8,1185.2,25.8,1185,25.9
			C1185.1,25.8,1185,25.9,1185,25.9L1185,25.9z M1201.7,21.3c-0.2,0.2-0.2,0.4,0,0.6c0,0,0,0,0,0c0.2,0.2,0.6,0.2,0.8,0
			c0.2-0.2,0.2-0.4,0-0.6c0,0,0,0,0,0C1202.2,21.1,1201.9,21.1,1201.7,21.3L1201.7,21.3z M1204.4,19.1c0.1-0.1,0.1-0.2,0-0.2
			c0,0,0,0,0,0l-0.4-0.4c-0.1,0-0.1,0-0.2,0l-2.7,1.1c-0.6,0.2-1,0.7-1.3,1.2c-0.4,0.8-0.2,1.8,0.5,2.4c0.7,0.6,1.7,0.8,2.7,0.5
			c0.6-0.2,1.1-0.6,1.3-1.2l0.1-0.2h0c0.2,0,0.3,0,0.4-0.1l0.5-0.4c0.2-0.2,0.2-0.4,0-0.6c0,0,0,0,0,0c-0.1-0.1-0.2-0.1-0.3-0.1
			l0.5-0.9c0-0.1,0-0.1,0-0.2l-0.4-0.4c-0.1-0.1-0.2-0.1-0.2,0l-1.1,1l-0.5-0.5L1204.4,19.1L1204.4,19.1z M1201.1,22.8
			c-0.1,0.1-0.2,0.1-0.2,0l0,0c-0.1-0.1-0.1-0.2,0-0.2c0,0,0,0,0,0c0.1-0.1,0.2-0.1,0.2,0C1201.1,22.6,1201.1,22.7,1201.1,22.8
			L1201.1,22.8z M1202,23.2c-0.1,0.1-0.2,0.1-0.2,0c-0.1-0.1-0.1-0.2,0-0.2c0,0,0,0,0,0c0.1-0.1,0.2-0.1,0.2,0
			C1202.1,23,1202.1,23.1,1202,23.2L1202,23.2z M1200.6,21.9c-0.1,0.1-0.2,0.1-0.2,0c-0.1-0.1-0.1-0.2,0-0.2c0,0,0,0,0,0
			c0.1-0.1,0.2-0.1,0.2,0C1200.6,21.7,1200.6,21.8,1200.6,21.9L1200.6,21.9z M1202.7,22.2c-0.3,0.3-0.9,0.3-1.2,0
			c-0.3-0.3-0.3-0.8,0-1.1c0,0,0,0,0,0c0.4-0.3,0.9-0.3,1.2,0C1203,21.4,1203,21.9,1202.7,22.2C1202.7,22.2,1202.7,22.2,1202.7,22.2
			L1202.7,22.2z M1215.9,32.4l-0.5,0.9l-1.1,0.1c-0.1,0-0.2,0.1-0.2,0.2c0,0.1,0,0.1,0.1,0.2l0.8,0.7l-0.2,1c0,0.1,0.1,0.2,0.2,0.2
			c0,0,0.1,0,0.1,0l1-0.5l0.9,0.5c0.1,0.1,0.3,0,0.3-0.1c0,0,0-0.1,0-0.1l-0.2-0.9l0.8-0.7c0.1-0.1,0.1-0.2,0-0.3
			c0,0-0.1-0.1-0.2-0.1l-1.1-0.1l-0.5-0.9C1216.2,32.3,1216.1,32.3,1215.9,32.4C1215.9,32.4,1215.9,32.4,1215.9,32.4L1215.9,32.4z
			 M1232.8-5.1l-0.5,0.9l-1.1,0.1c-0.1,0-0.2,0.1-0.2,0.2c0,0.1,0,0.1,0.1,0.1l0.8,0.7l-0.2,1c0,0.1,0.1,0.2,0.2,0.3
			c0,0,0.1,0,0.1,0l1-0.5l0.9,0.5c0.1,0.1,0.3,0,0.3-0.1c0,0,0-0.1,0-0.1l-0.2-0.9l0.8-0.7c0.1-0.1,0.1-0.2,0-0.3
			c0,0-0.1-0.1-0.1-0.1l-1.1-0.1l-0.5-0.9C1233.1-5.2,1233-5.3,1232.8-5.1C1232.9-5.2,1232.8-5.1,1232.8-5.1L1232.8-5.1z"/>
		<path class="st3" d="M1201.6,7.1l-0.5,0.9l-1.1,0.1c-0.1,0-0.2,0.1-0.2,0.2c0,0.1,0,0.1,0.1,0.1l0.8,0.7l-0.2,1
			c0,0.1,0.1,0.2,0.2,0.3c0,0,0.1,0,0.1,0l1-0.5l0.9,0.5c0.1,0.1,0.3,0,0.3-0.1c0,0,0-0.1,0-0.1l-0.2-1l0.8-0.7
			c0.1-0.1,0.1-0.2,0-0.3c0,0-0.1-0.1-0.1-0.1l-1.1-0.1l-0.5-0.9c-0.1-0.1-0.2-0.2-0.3-0.1C1201.7,7,1201.7,7,1201.6,7.1L1201.6,7.1
			z M1247,16.7l-0.5,0.9l-1.1,0.1c-0.1,0-0.2,0.1-0.2,0.2c0,0.1,0,0.1,0.1,0.1l0.8,0.7l-0.2,1c0,0.1,0.1,0.2,0.2,0.2
			c0,0,0.1,0,0.1,0l1-0.5l0.9,0.5c0.1,0.1,0.3,0,0.3-0.1c0,0,0-0.1,0-0.1l-0.2-1l0.8-0.7c0.1-0.1,0.1-0.2,0-0.3c0,0-0.1-0.1-0.1-0.1
			l-1.1-0.1l-0.5-0.9C1247.4,16.5,1247.3,16.5,1247,16.7C1247.1,16.6,1247.1,16.6,1247,16.7L1247,16.7z"/>
	</g>
</g>
</svg>
